<svg xmlns="http://www.w3.org/2000/svg" width="980" height="560" viewBox="0 0 980 560">
<style>
text { font-family: 'Malgun Gothic', 'Segoe UI', sans-serif; fill: #1f2937; }
.title { font-size: 24px; font-weight: 700; }
.subtitle { font-size: 13px; fill: #6b7280; }
.axis { font-size: 12px; fill: #4b5563; }
.label { font-size: 12px; }
.small { font-size: 11px; fill: #4b5563; }
.value { font-size: 11px; font-weight: 600; }
.grid { stroke: #e5e7eb; stroke-width: 1; }
.axis-line { stroke: #9ca3af; stroke-width: 1.2; }
.note { font-size: 12px; fill: #374151; }
</style>
<rect x="0" y="0" width="100%" height="100%" fill="#ffffff"/>
<text class="title" x="40" y="42">Predictor MAE Comparison (extended40 current)</text>
<text class="subtitle" x="40" y="66">Validation MAE on 2,832 kept rows</text>
<line class="grid" x1="90" y1="110.00" x2="940" y2="110.00"/>
<text class="axis" x="82" y="114.00" text-anchor="end">0.131</text>
<line class="grid" x1="90" y1="181.00" x2="940" y2="181.00"/>
<text class="axis" x="82" y="185.00" text-anchor="end">0.105</text>
<line class="grid" x1="90" y1="252.00" x2="940" y2="252.00"/>
<text class="axis" x="82" y="256.00" text-anchor="end">0.079</text>
<line class="grid" x1="90" y1="323.00" x2="940" y2="323.00"/>
<text class="axis" x="82" y="327.00" text-anchor="end">0.053</text>
<line class="grid" x1="90" y1="394.00" x2="940" y2="394.00"/>
<text class="axis" x="82" y="398.00" text-anchor="end">0.026</text>
<line class="grid" x1="90" y1="465.00" x2="940" y2="465.00"/>
<text class="axis" x="82" y="469.00" text-anchor="end">0.000</text>
<line class="axis-line" x1="90" y1="465" x2="940" y2="465"/>
<line class="axis-line" x1="90" y1="110" x2="90" y2="465"/>
<line x1="90" y1="156.30" x2="940" y2="156.30" stroke="#dc2626" stroke-width="2" stroke-dasharray="7 5"/>
<text class="small" x="936" y="148.30" text-anchor="end">mean baseline</text>
<rect x="147.00" y="156.30" width="56.00" height="308.70" rx="6" fill="#9ca3af"/>
<text class="value" x="175.00" y="148.30" text-anchor="middle">0.1143</text>
<text class="label" x="175.00" y="485.00" text-anchor="middle">mean baseline</text>
<rect x="317.00" y="160.33" width="56.00" height="304.67" rx="6" fill="#14b8a6"/>
<text class="value" x="345.00" y="152.33" text-anchor="middle">0.1128</text>
<text class="label" x="345.00" y="485.00" text-anchor="middle">stim-only</text>
<rect x="487.00" y="166.91" width="56.00" height="298.09" rx="6" fill="#60a5fa"/>
<text class="value" x="515.00" y="158.91" text-anchor="middle">0.1104</text>
<text class="label" x="515.00" y="485.00" text-anchor="middle">text tfidf</text>
<rect x="657.00" y="160.20" width="56.00" height="304.80" rx="6" fill="#2563eb"/>
<text class="value" x="685.00" y="152.20" text-anchor="middle">0.1129</text>
<text class="label" x="685.00" y="485.00" text-anchor="middle">legacy z64</text>
<rect x="827.00" y="158.48" width="56.00" height="306.52" rx="6" fill="#7c3aed"/>
<text class="value" x="855.00" y="150.48" text-anchor="middle">0.1135</text>
<text class="label" x="855.00" y="485.00" text-anchor="middle">structfix z64</text>
<text class="axis" x="32" y="94" text-anchor="start">validation MAE</text>
<text class="note" x="40" y="536">Lower is better. Current learned z does not yet beat the text baseline.</text>
</svg>