<?xml version="1.0" encoding="utf-8" standalone="no"?>
<!DOCTYPE svg PUBLIC "-//W3C//DTD SVG 1.1//EN"
  "http://www.w3.org/Graphics/SVG/1.1/DTD/svg11.dtd">
<svg xmlns:xlink="http://www.w3.org/1999/xlink" width="612pt" height="345.6pt" viewBox="0 0 612 345.6" xmlns="http://www.w3.org/2000/svg" version="1.1">
 <metadata>
  <rdf:RDF xmlns:dc="http://purl.org/dc/elements/1.1/" xmlns:cc="http://creativecommons.org/ns#" xmlns:rdf="http://www.w3.org/1999/02/22-rdf-syntax-ns#">
   <cc:Work>
    <dc:type rdf:resource="http://purl.org/dc/dcmitype/StillImage"/>
    <dc:date>2026-04-09T20:38:43.975018</dc:date>
    <dc:format>image/svg+xml</dc:format>
    <dc:creator>
     <cc:Agent>
      <dc:title>Matplotlib v3.10.8, https://matplotlib.org/</dc:title>
     </cc:Agent>
    </dc:creator>
   </cc:Work>
  </rdf:RDF>
 </metadata>
 <defs>
  <style type="text/css">*{stroke-linejoin: round; stroke-linecap: butt}</style>
 </defs>
 <g id="figure_1">
  <g id="patch_1">
   <path d="M 0 345.6 
L 612 345.6 
L 612 0 
L 0 0 
z
" style="fill: #ffffff"/>
  </g>
  <g id="axes_1">
   <g id="patch_2">
    <path d="M 47.72 303.64 
L 601.2 303.64 
L 601.2 26.88 
L 47.72 26.88 
z
" style="fill: #ffffff"/>
   </g>
   <g id="patch_3">
    <path d="M 72.878182 303.64 
L 78.797754 303.64 
L 78.797754 26.88 
L 72.878182 26.88 
z
" clip-path="url(#p3e77e107c7)" style="fill: #dddddd; opacity: 0.12; stroke: #dddddd; stroke-linejoin: miter"/>
   </g>
   <g id="patch_4">
    <path d="M 80.770945 303.64 
L 90.636898 303.64 
L 90.636898 26.88 
L 80.770945 26.88 
z
" clip-path="url(#p3e77e107c7)" style="fill: #fee08b; opacity: 0.12; stroke: #fee08b; stroke-linejoin: miter"/>
   </g>
   <g id="patch_5">
    <path d="M 92.610089 303.64 
L 576.041818 303.64 
L 576.041818 26.88 
L 92.610089 26.88 
z
" clip-path="url(#p3e77e107c7)" style="fill: #d73027; opacity: 0.12; stroke: #d73027; stroke-linejoin: miter"/>
   </g>
   <g id="matplotlib.axis_1">
    <g id="xtick_1">
     <g id="line2d_1">
      <defs>
       <path id="mce9135b830" d="M 0 0 
L 0 3.5 
" style="stroke: #000000; stroke-width: 0.8"/>
      </defs>
      <g>
       <use xlink:href="#mce9135b830" x="72.878182" y="303.64" style="stroke: #000000; stroke-width: 0.8"/>
      </g>
     </g>
     <g id="text_1">
      <!-- 0 -->
      <g transform="translate(69.696932 318.238437) scale(0.1 -0.1)">
       <defs>
        <path id="DejaVuSans-30" d="M 2034 4250 
Q 1547 4250 1301 3770 
Q 1056 3291 1056 2328 
Q 1056 1369 1301 889 
Q 1547 409 2034 409 
Q 2525 409 2770 889 
Q 3016 1369 3016 2328 
Q 3016 3291 2770 3770 
Q 2525 4250 2034 4250 
z
M 2034 4750 
Q 2819 4750 3233 4129 
Q 3647 3509 3647 2328 
Q 3647 1150 3233 529 
Q 2819 -91 2034 -91 
Q 1250 -91 836 529 
Q 422 1150 422 2328 
Q 422 3509 836 4129 
Q 1250 4750 2034 4750 
z
" transform="scale(0.015625)"/>
       </defs>
       <use xlink:href="#DejaVuSans-30"/>
      </g>
     </g>
    </g>
    <g id="xtick_2">
     <g id="line2d_2">
      <g>
       <use xlink:href="#mce9135b830" x="151.805811" y="303.64" style="stroke: #000000; stroke-width: 0.8"/>
      </g>
     </g>
     <g id="text_2">
      <!-- 20 -->
      <g transform="translate(145.443311 318.238437) scale(0.1 -0.1)">
       <defs>
        <path id="DejaVuSans-32" d="M 1228 531 
L 3431 531 
L 3431 0 
L 469 0 
L 469 531 
Q 828 903 1448 1529 
Q 2069 2156 2228 2338 
Q 2531 2678 2651 2914 
Q 2772 3150 2772 3378 
Q 2772 3750 2511 3984 
Q 2250 4219 1831 4219 
Q 1534 4219 1204 4116 
Q 875 4013 500 3803 
L 500 4441 
Q 881 4594 1212 4672 
Q 1544 4750 1819 4750 
Q 2544 4750 2975 4387 
Q 3406 4025 3406 3419 
Q 3406 3131 3298 2873 
Q 3191 2616 2906 2266 
Q 2828 2175 2409 1742 
Q 1991 1309 1228 531 
z
" transform="scale(0.015625)"/>
       </defs>
       <use xlink:href="#DejaVuSans-32"/>
       <use xlink:href="#DejaVuSans-30" transform="translate(63.623047 0)"/>
      </g>
     </g>
    </g>
    <g id="xtick_3">
     <g id="line2d_3">
      <g>
       <use xlink:href="#mce9135b830" x="230.73344" y="303.64" style="stroke: #000000; stroke-width: 0.8"/>
      </g>
     </g>
     <g id="text_3">
      <!-- 40 -->
      <g transform="translate(224.37094 318.238437) scale(0.1 -0.1)">
       <defs>
        <path id="DejaVuSans-34" d="M 2419 4116 
L 825 1625 
L 2419 1625 
L 2419 4116 
z
M 2253 4666 
L 3047 4666 
L 3047 1625 
L 3713 1625 
L 3713 1100 
L 3047 1100 
L 3047 0 
L 2419 0 
L 2419 1100 
L 313 1100 
L 313 1709 
L 2253 4666 
z
" transform="scale(0.015625)"/>
       </defs>
       <use xlink:href="#DejaVuSans-34"/>
       <use xlink:href="#DejaVuSans-30" transform="translate(63.623047 0)"/>
      </g>
     </g>
    </g>
    <g id="xtick_4">
     <g id="line2d_4">
      <g>
       <use xlink:href="#mce9135b830" x="309.66107" y="303.64" style="stroke: #000000; stroke-width: 0.8"/>
      </g>
     </g>
     <g id="text_4">
      <!-- 60 -->
      <g transform="translate(303.29857 318.238437) scale(0.1 -0.1)">
       <defs>
        <path id="DejaVuSans-36" d="M 2113 2584 
Q 1688 2584 1439 2293 
Q 1191 2003 1191 1497 
Q 1191 994 1439 701 
Q 1688 409 2113 409 
Q 2538 409 2786 701 
Q 3034 994 3034 1497 
Q 3034 2003 2786 2293 
Q 2538 2584 2113 2584 
z
M 3366 4563 
L 3366 3988 
Q 3128 4100 2886 4159 
Q 2644 4219 2406 4219 
Q 1781 4219 1451 3797 
Q 1122 3375 1075 2522 
Q 1259 2794 1537 2939 
Q 1816 3084 2150 3084 
Q 2853 3084 3261 2657 
Q 3669 2231 3669 1497 
Q 3669 778 3244 343 
Q 2819 -91 2113 -91 
Q 1303 -91 875 529 
Q 447 1150 447 2328 
Q 447 3434 972 4092 
Q 1497 4750 2381 4750 
Q 2619 4750 2861 4703 
Q 3103 4656 3366 4563 
z
" transform="scale(0.015625)"/>
       </defs>
       <use xlink:href="#DejaVuSans-36"/>
       <use xlink:href="#DejaVuSans-30" transform="translate(63.623047 0)"/>
      </g>
     </g>
    </g>
    <g id="xtick_5">
     <g id="line2d_5">
      <g>
       <use xlink:href="#mce9135b830" x="388.588699" y="303.64" style="stroke: #000000; stroke-width: 0.8"/>
      </g>
     </g>
     <g id="text_5">
      <!-- 80 -->
      <g transform="translate(382.226199 318.238437) scale(0.1 -0.1)">
       <defs>
        <path id="DejaVuSans-38" d="M 2034 2216 
Q 1584 2216 1326 1975 
Q 1069 1734 1069 1313 
Q 1069 891 1326 650 
Q 1584 409 2034 409 
Q 2484 409 2743 651 
Q 3003 894 3003 1313 
Q 3003 1734 2745 1975 
Q 2488 2216 2034 2216 
z
M 1403 2484 
Q 997 2584 770 2862 
Q 544 3141 544 3541 
Q 544 4100 942 4425 
Q 1341 4750 2034 4750 
Q 2731 4750 3128 4425 
Q 3525 4100 3525 3541 
Q 3525 3141 3298 2862 
Q 3072 2584 2669 2484 
Q 3125 2378 3379 2068 
Q 3634 1759 3634 1313 
Q 3634 634 3220 271 
Q 2806 -91 2034 -91 
Q 1263 -91 848 271 
Q 434 634 434 1313 
Q 434 1759 690 2068 
Q 947 2378 1403 2484 
z
M 1172 3481 
Q 1172 3119 1398 2916 
Q 1625 2713 2034 2713 
Q 2441 2713 2670 2916 
Q 2900 3119 2900 3481 
Q 2900 3844 2670 4047 
Q 2441 4250 2034 4250 
Q 1625 4250 1398 4047 
Q 1172 3844 1172 3481 
z
" transform="scale(0.015625)"/>
       </defs>
       <use xlink:href="#DejaVuSans-38"/>
       <use xlink:href="#DejaVuSans-30" transform="translate(63.623047 0)"/>
      </g>
     </g>
    </g>
    <g id="xtick_6">
     <g id="line2d_6">
      <g>
       <use xlink:href="#mce9135b830" x="467.516328" y="303.64" style="stroke: #000000; stroke-width: 0.8"/>
      </g>
     </g>
     <g id="text_6">
      <!-- 100 -->
      <g transform="translate(457.972578 318.238437) scale(0.1 -0.1)">
       <defs>
        <path id="DejaVuSans-31" d="M 794 531 
L 1825 531 
L 1825 4091 
L 703 3866 
L 703 4441 
L 1819 4666 
L 2450 4666 
L 2450 531 
L 3481 531 
L 3481 0 
L 794 0 
L 794 531 
z
" transform="scale(0.015625)"/>
       </defs>
       <use xlink:href="#DejaVuSans-31"/>
       <use xlink:href="#DejaVuSans-30" transform="translate(63.623047 0)"/>
       <use xlink:href="#DejaVuSans-30" transform="translate(127.246094 0)"/>
      </g>
     </g>
    </g>
    <g id="xtick_7">
     <g id="line2d_7">
      <g>
       <use xlink:href="#mce9135b830" x="546.443957" y="303.64" style="stroke: #000000; stroke-width: 0.8"/>
      </g>
     </g>
     <g id="text_7">
      <!-- 120 -->
      <g transform="translate(536.900207 318.238437) scale(0.1 -0.1)">
       <use xlink:href="#DejaVuSans-31"/>
       <use xlink:href="#DejaVuSans-32" transform="translate(63.623047 0)"/>
       <use xlink:href="#DejaVuSans-30" transform="translate(127.246094 0)"/>
      </g>
     </g>
    </g>
    <g id="text_8">
     <!-- tick -->
     <g transform="translate(315.46625 331.916562) scale(0.1 -0.1)">
      <defs>
       <path id="DejaVuSans-74" d="M 1172 4494 
L 1172 3500 
L 2356 3500 
L 2356 3053 
L 1172 3053 
L 1172 1153 
Q 1172 725 1289 603 
Q 1406 481 1766 481 
L 2356 481 
L 2356 0 
L 1766 0 
Q 1100 0 847 248 
Q 594 497 594 1153 
L 594 3053 
L 172 3053 
L 172 3500 
L 594 3500 
L 594 4494 
L 1172 4494 
z
" transform="scale(0.015625)"/>
       <path id="DejaVuSans-69" d="M 603 3500 
L 1178 3500 
L 1178 0 
L 603 0 
L 603 3500 
z
M 603 4863 
L 1178 4863 
L 1178 4134 
L 603 4134 
L 603 4863 
z
" transform="scale(0.015625)"/>
       <path id="DejaVuSans-63" d="M 3122 3366 
L 3122 2828 
Q 2878 2963 2633 3030 
Q 2388 3097 2138 3097 
Q 1578 3097 1268 2742 
Q 959 2388 959 1747 
Q 959 1106 1268 751 
Q 1578 397 2138 397 
Q 2388 397 2633 464 
Q 2878 531 3122 666 
L 3122 134 
Q 2881 22 2623 -34 
Q 2366 -91 2075 -91 
Q 1284 -91 818 406 
Q 353 903 353 1747 
Q 353 2603 823 3093 
Q 1294 3584 2113 3584 
Q 2378 3584 2631 3529 
Q 2884 3475 3122 3366 
z
" transform="scale(0.015625)"/>
       <path id="DejaVuSans-6b" d="M 581 4863 
L 1159 4863 
L 1159 1991 
L 2875 3500 
L 3609 3500 
L 1753 1863 
L 3688 0 
L 2938 0 
L 1159 1709 
L 1159 0 
L 581 0 
L 581 4863 
z
" transform="scale(0.015625)"/>
      </defs>
      <use xlink:href="#DejaVuSans-74"/>
      <use xlink:href="#DejaVuSans-69" transform="translate(39.208984 0)"/>
      <use xlink:href="#DejaVuSans-63" transform="translate(66.992188 0)"/>
      <use xlink:href="#DejaVuSans-6b" transform="translate(121.972656 0)"/>
     </g>
    </g>
   </g>
   <g id="matplotlib.axis_2">
    <g id="ytick_1">
     <g id="line2d_8">
      <defs>
       <path id="m2a761f99f7" d="M 0 0 
L -3.5 0 
" style="stroke: #000000; stroke-width: 0.8"/>
      </defs>
      <g>
       <use xlink:href="#m2a761f99f7" x="47.72" y="291.06" style="stroke: #000000; stroke-width: 0.8"/>
      </g>
     </g>
     <g id="text_9">
      <!-- 0.0 -->
      <g transform="translate(24.816875 294.859219) scale(0.1 -0.1)">
       <defs>
        <path id="DejaVuSans-2e" d="M 684 794 
L 1344 794 
L 1344 0 
L 684 0 
L 684 794 
z
" transform="scale(0.015625)"/>
       </defs>
       <use xlink:href="#DejaVuSans-30"/>
       <use xlink:href="#DejaVuSans-2e" transform="translate(63.623047 0)"/>
       <use xlink:href="#DejaVuSans-30" transform="translate(95.410156 0)"/>
      </g>
     </g>
    </g>
    <g id="ytick_2">
     <g id="line2d_9">
      <g>
       <use xlink:href="#m2a761f99f7" x="47.72" y="251.197988" style="stroke: #000000; stroke-width: 0.8"/>
      </g>
     </g>
     <g id="text_10">
      <!-- 0.1 -->
      <g transform="translate(24.816875 254.997206) scale(0.1 -0.1)">
       <use xlink:href="#DejaVuSans-30"/>
       <use xlink:href="#DejaVuSans-2e" transform="translate(63.623047 0)"/>
       <use xlink:href="#DejaVuSans-31" transform="translate(95.410156 0)"/>
      </g>
     </g>
    </g>
    <g id="ytick_3">
     <g id="line2d_10">
      <g>
       <use xlink:href="#m2a761f99f7" x="47.72" y="211.335975" style="stroke: #000000; stroke-width: 0.8"/>
      </g>
     </g>
     <g id="text_11">
      <!-- 0.2 -->
      <g transform="translate(24.816875 215.135194) scale(0.1 -0.1)">
       <use xlink:href="#DejaVuSans-30"/>
       <use xlink:href="#DejaVuSans-2e" transform="translate(63.623047 0)"/>
       <use xlink:href="#DejaVuSans-32" transform="translate(95.410156 0)"/>
      </g>
     </g>
    </g>
    <g id="ytick_4">
     <g id="line2d_11">
      <g>
       <use xlink:href="#m2a761f99f7" x="47.72" y="171.473963" style="stroke: #000000; stroke-width: 0.8"/>
      </g>
     </g>
     <g id="text_12">
      <!-- 0.3 -->
      <g transform="translate(24.816875 175.273181) scale(0.1 -0.1)">
       <defs>
        <path id="DejaVuSans-33" d="M 2597 2516 
Q 3050 2419 3304 2112 
Q 3559 1806 3559 1356 
Q 3559 666 3084 287 
Q 2609 -91 1734 -91 
Q 1441 -91 1130 -33 
Q 819 25 488 141 
L 488 750 
Q 750 597 1062 519 
Q 1375 441 1716 441 
Q 2309 441 2620 675 
Q 2931 909 2931 1356 
Q 2931 1769 2642 2001 
Q 2353 2234 1838 2234 
L 1294 2234 
L 1294 2753 
L 1863 2753 
Q 2328 2753 2575 2939 
Q 2822 3125 2822 3475 
Q 2822 3834 2567 4026 
Q 2313 4219 1838 4219 
Q 1578 4219 1281 4162 
Q 984 4106 628 3988 
L 628 4550 
Q 988 4650 1302 4700 
Q 1616 4750 1894 4750 
Q 2613 4750 3031 4423 
Q 3450 4097 3450 3541 
Q 3450 3153 3228 2886 
Q 3006 2619 2597 2516 
z
" transform="scale(0.015625)"/>
       </defs>
       <use xlink:href="#DejaVuSans-30"/>
       <use xlink:href="#DejaVuSans-2e" transform="translate(63.623047 0)"/>
       <use xlink:href="#DejaVuSans-33" transform="translate(95.410156 0)"/>
      </g>
     </g>
    </g>
    <g id="ytick_5">
     <g id="line2d_12">
      <g>
       <use xlink:href="#m2a761f99f7" x="47.72" y="131.61195" style="stroke: #000000; stroke-width: 0.8"/>
      </g>
     </g>
     <g id="text_13">
      <!-- 0.4 -->
      <g transform="translate(24.816875 135.411169) scale(0.1 -0.1)">
       <use xlink:href="#DejaVuSans-30"/>
       <use xlink:href="#DejaVuSans-2e" transform="translate(63.623047 0)"/>
       <use xlink:href="#DejaVuSans-34" transform="translate(95.410156 0)"/>
      </g>
     </g>
    </g>
    <g id="ytick_6">
     <g id="line2d_13">
      <g>
       <use xlink:href="#m2a761f99f7" x="47.72" y="91.749938" style="stroke: #000000; stroke-width: 0.8"/>
      </g>
     </g>
     <g id="text_14">
      <!-- 0.5 -->
      <g transform="translate(24.816875 95.549157) scale(0.1 -0.1)">
       <defs>
        <path id="DejaVuSans-35" d="M 691 4666 
L 3169 4666 
L 3169 4134 
L 1269 4134 
L 1269 2991 
Q 1406 3038 1543 3061 
Q 1681 3084 1819 3084 
Q 2600 3084 3056 2656 
Q 3513 2228 3513 1497 
Q 3513 744 3044 326 
Q 2575 -91 1722 -91 
Q 1428 -91 1123 -41 
Q 819 9 494 109 
L 494 744 
Q 775 591 1075 516 
Q 1375 441 1709 441 
Q 2250 441 2565 725 
Q 2881 1009 2881 1497 
Q 2881 1984 2565 2268 
Q 2250 2553 1709 2553 
Q 1456 2553 1204 2497 
Q 953 2441 691 2322 
L 691 4666 
z
" transform="scale(0.015625)"/>
       </defs>
       <use xlink:href="#DejaVuSans-30"/>
       <use xlink:href="#DejaVuSans-2e" transform="translate(63.623047 0)"/>
       <use xlink:href="#DejaVuSans-35" transform="translate(95.410156 0)"/>
      </g>
     </g>
    </g>
    <g id="ytick_7">
     <g id="line2d_14">
      <g>
       <use xlink:href="#m2a761f99f7" x="47.72" y="51.887925" style="stroke: #000000; stroke-width: 0.8"/>
      </g>
     </g>
     <g id="text_15">
      <!-- 0.6 -->
      <g transform="translate(24.816875 55.687144) scale(0.1 -0.1)">
       <use xlink:href="#DejaVuSans-30"/>
       <use xlink:href="#DejaVuSans-2e" transform="translate(63.623047 0)"/>
       <use xlink:href="#DejaVuSans-36" transform="translate(95.410156 0)"/>
      </g>
     </g>
    </g>
    <g id="text_16">
     <!-- emotion score -->
     <g transform="translate(18.737188 200.865469) rotate(-90) scale(0.1 -0.1)">
      <defs>
       <path id="DejaVuSans-65" d="M 3597 1894 
L 3597 1613 
L 953 1613 
Q 991 1019 1311 708 
Q 1631 397 2203 397 
Q 2534 397 2845 478 
Q 3156 559 3463 722 
L 3463 178 
Q 3153 47 2828 -22 
Q 2503 -91 2169 -91 
Q 1331 -91 842 396 
Q 353 884 353 1716 
Q 353 2575 817 3079 
Q 1281 3584 2069 3584 
Q 2775 3584 3186 3129 
Q 3597 2675 3597 1894 
z
M 3022 2063 
Q 3016 2534 2758 2815 
Q 2500 3097 2075 3097 
Q 1594 3097 1305 2825 
Q 1016 2553 972 2059 
L 3022 2063 
z
" transform="scale(0.015625)"/>
       <path id="DejaVuSans-6d" d="M 3328 2828 
Q 3544 3216 3844 3400 
Q 4144 3584 4550 3584 
Q 5097 3584 5394 3201 
Q 5691 2819 5691 2113 
L 5691 0 
L 5113 0 
L 5113 2094 
Q 5113 2597 4934 2840 
Q 4756 3084 4391 3084 
Q 3944 3084 3684 2787 
Q 3425 2491 3425 1978 
L 3425 0 
L 2847 0 
L 2847 2094 
Q 2847 2600 2669 2842 
Q 2491 3084 2119 3084 
Q 1678 3084 1418 2786 
Q 1159 2488 1159 1978 
L 1159 0 
L 581 0 
L 581 3500 
L 1159 3500 
L 1159 2956 
Q 1356 3278 1631 3431 
Q 1906 3584 2284 3584 
Q 2666 3584 2933 3390 
Q 3200 3197 3328 2828 
z
" transform="scale(0.015625)"/>
       <path id="DejaVuSans-6f" d="M 1959 3097 
Q 1497 3097 1228 2736 
Q 959 2375 959 1747 
Q 959 1119 1226 758 
Q 1494 397 1959 397 
Q 2419 397 2687 759 
Q 2956 1122 2956 1747 
Q 2956 2369 2687 2733 
Q 2419 3097 1959 3097 
z
M 1959 3584 
Q 2709 3584 3137 3096 
Q 3566 2609 3566 1747 
Q 3566 888 3137 398 
Q 2709 -91 1959 -91 
Q 1206 -91 779 398 
Q 353 888 353 1747 
Q 353 2609 779 3096 
Q 1206 3584 1959 3584 
z
" transform="scale(0.015625)"/>
       <path id="DejaVuSans-6e" d="M 3513 2113 
L 3513 0 
L 2938 0 
L 2938 2094 
Q 2938 2591 2744 2837 
Q 2550 3084 2163 3084 
Q 1697 3084 1428 2787 
Q 1159 2491 1159 1978 
L 1159 0 
L 581 0 
L 581 3500 
L 1159 3500 
L 1159 2956 
Q 1366 3272 1645 3428 
Q 1925 3584 2291 3584 
Q 2894 3584 3203 3211 
Q 3513 2838 3513 2113 
z
" transform="scale(0.015625)"/>
       <path id="DejaVuSans-20" transform="scale(0.015625)"/>
       <path id="DejaVuSans-73" d="M 2834 3397 
L 2834 2853 
Q 2591 2978 2328 3040 
Q 2066 3103 1784 3103 
Q 1356 3103 1142 2972 
Q 928 2841 928 2578 
Q 928 2378 1081 2264 
Q 1234 2150 1697 2047 
L 1894 2003 
Q 2506 1872 2764 1633 
Q 3022 1394 3022 966 
Q 3022 478 2636 193 
Q 2250 -91 1575 -91 
Q 1294 -91 989 -36 
Q 684 19 347 128 
L 347 722 
Q 666 556 975 473 
Q 1284 391 1588 391 
Q 1994 391 2212 530 
Q 2431 669 2431 922 
Q 2431 1156 2273 1281 
Q 2116 1406 1581 1522 
L 1381 1569 
Q 847 1681 609 1914 
Q 372 2147 372 2553 
Q 372 3047 722 3315 
Q 1072 3584 1716 3584 
Q 2034 3584 2315 3537 
Q 2597 3491 2834 3397 
z
" transform="scale(0.015625)"/>
       <path id="DejaVuSans-72" d="M 2631 2963 
Q 2534 3019 2420 3045 
Q 2306 3072 2169 3072 
Q 1681 3072 1420 2755 
Q 1159 2438 1159 1844 
L 1159 0 
L 581 0 
L 581 3500 
L 1159 3500 
L 1159 2956 
Q 1341 3275 1631 3429 
Q 1922 3584 2338 3584 
Q 2397 3584 2469 3576 
Q 2541 3569 2628 3553 
L 2631 2963 
z
" transform="scale(0.015625)"/>
      </defs>
      <use xlink:href="#DejaVuSans-65"/>
      <use xlink:href="#DejaVuSans-6d" transform="translate(61.523438 0)"/>
      <use xlink:href="#DejaVuSans-6f" transform="translate(158.935547 0)"/>
      <use xlink:href="#DejaVuSans-74" transform="translate(220.117188 0)"/>
      <use xlink:href="#DejaVuSans-69" transform="translate(259.326172 0)"/>
      <use xlink:href="#DejaVuSans-6f" transform="translate(287.109375 0)"/>
      <use xlink:href="#DejaVuSans-6e" transform="translate(348.291016 0)"/>
      <use xlink:href="#DejaVuSans-20" transform="translate(411.669922 0)"/>
      <use xlink:href="#DejaVuSans-73" transform="translate(443.457031 0)"/>
      <use xlink:href="#DejaVuSans-63" transform="translate(495.556641 0)"/>
      <use xlink:href="#DejaVuSans-6f" transform="translate(550.537109 0)"/>
      <use xlink:href="#DejaVuSans-72" transform="translate(611.71875 0)"/>
      <use xlink:href="#DejaVuSans-65" transform="translate(650.582031 0)"/>
     </g>
    </g>
   </g>
   <g id="line2d_15">
    <path d="M 72.878182 291.06 
L 76.824563 291.06 
L 80.770945 186.450055 
L 84.717326 190.731507 
L 88.663708 158.371417 
L 92.610089 140.843066 
L 96.556471 130.413244 
L 100.502852 124.548243 
L 104.449234 119.505971 
L 112.341996 110.041318 
L 116.288378 106.71204 
L 120.234759 102.580212 
L 124.181141 99.409842 
L 128.127522 96.647294 
L 132.073904 92.705902 
L 136.020285 89.766291 
L 139.966667 87.705635 
L 143.913048 84.019987 
L 147.85943 81.625861 
L 151.805811 80.247029 
L 155.752193 77.822191 
L 163.644955 73.897527 
L 171.537718 70.365348 
L 179.430481 68.008347 
L 183.376863 66.50583 
L 187.323244 64.503389 
L 199.162389 61.20035 
L 203.10877 61.107289 
L 207.055152 59.216092 
L 211.001533 58.026501 
L 214.947914 57.856368 
L 218.894296 56.201646 
L 222.840677 55.350474 
L 226.787059 54.670187 
L 230.73344 53.227901 
L 234.679822 52.51637 
L 238.626203 52.565516 
L 242.572585 50.697184 
L 246.518966 49.819007 
L 258.358111 47.941047 
L 262.304492 47.487862 
L 270.197255 46.100875 
L 274.143636 45.676657 
L 278.090018 45.556041 
L 282.036399 45.179676 
L 285.982781 44.400682 
L 289.929162 44.39963 
L 293.875544 43.174738 
L 297.821925 42.704849 
L 301.768307 43.827666 
L 305.714688 43.337698 
L 309.66107 43.295207 
L 313.607451 43.410519 
L 317.553832 44.226722 
L 321.500214 43.556581 
L 325.446595 44.227324 
L 329.392977 43.43458 
L 333.339358 42.919172 
L 337.28574 42.285894 
L 341.232121 42.434778 
L 345.178503 43.04363 
L 349.124884 42.777658 
L 353.071266 42.106628 
L 357.017647 41.941106 
L 360.964029 41.253788 
L 364.91041 43.569286 
L 368.856791 42.1904 
L 372.803173 41.361562 
L 376.749554 41.75204 
L 380.695936 41.712573 
L 384.642317 42.101767 
L 388.588699 42.316656 
L 392.53508 42.157481 
L 396.481462 41.30979 
L 400.427843 41.278558 
L 404.374225 41.849255 
L 408.320606 40.425726 
L 412.266988 40.43051 
L 416.213369 41.018608 
L 420.15975 41.074126 
L 424.106132 41.976333 
L 428.052513 40.632786 
L 431.998895 39.80687 
L 435.945276 40.437483 
L 443.838039 40.706888 
L 447.784421 41.013641 
L 451.730802 40.01679 
L 455.677184 41.549987 
L 459.623565 40.928787 
L 463.569947 39.46 
L 467.516328 40.986224 
L 471.462709 40.012496 
L 475.409091 40.084651 
L 479.355472 40.434017 
L 483.301854 41.562989 
L 487.248235 40.485022 
L 491.194617 40.305646 
L 495.140998 39.923049 
L 499.08738 39.84382 
L 503.033761 41.166636 
L 506.980143 40.257991 
L 510.926524 41.136491 
L 514.872906 41.280501 
L 518.819287 41.7771 
L 522.765668 41.205528 
L 526.71205 41.36731 
L 530.658431 42.018985 
L 534.604813 41.320726 
L 538.551194 41.011273 
L 542.497576 39.578082 
L 550.390339 40.157823 
L 554.33672 41.46409 
L 558.283102 41.314884 
L 562.229483 42.589143 
L 566.175865 41.682426 
L 570.122246 41.755227 
L 574.068627 41.699975 
L 574.068627 41.699975 
" clip-path="url(#p3e77e107c7)" style="fill: none; stroke: #5f0f40; stroke-width: 2; stroke-linecap: square"/>
   </g>
   <g id="line2d_16">
    <path d="M 72.878182 231.266981 
L 76.824563 231.266981 
L 80.770945 117.901877 
L 84.717326 153.492829 
L 88.663708 142.860755 
L 92.610089 142.412014 
L 96.556471 138.061259 
L 100.502852 134.669094 
L 104.449234 131.56816 
L 108.395615 129.256041 
L 112.341996 125.649156 
L 120.234759 120.582592 
L 128.127522 115.235473 
L 132.073904 112.762751 
L 136.020285 109.843308 
L 139.966667 108.041651 
L 143.913048 105.390213 
L 147.85943 102.489853 
L 151.805811 100.374956 
L 155.752193 97.817912 
L 159.698574 95.990753 
L 163.644955 93.88818 
L 167.591337 92.15344 
L 179.430481 87.315837 
L 183.376863 86.263485 
L 187.323244 83.766407 
L 191.269626 82.799447 
L 195.216007 81.022132 
L 199.162389 80.090729 
L 203.10877 80.517761 
L 207.055152 78.206914 
L 211.001533 77.238638 
L 214.947914 77.05354 
L 218.894296 74.300536 
L 222.840677 74.569925 
L 226.787059 74.388943 
L 230.73344 73.099763 
L 234.679822 72.244683 
L 238.626203 72.681427 
L 242.572585 70.692065 
L 246.518966 69.326045 
L 254.411729 68.279606 
L 258.358111 67.215079 
L 262.304492 67.527969 
L 266.250873 66.609771 
L 270.197255 66.647726 
L 274.143636 66.323241 
L 278.090018 66.275253 
L 282.036399 65.34721 
L 285.982781 64.710846 
L 289.929162 64.77602 
L 293.875544 63.596098 
L 297.821925 61.919035 
L 301.768307 64.49908 
L 305.714688 63.733754 
L 309.66107 63.734631 
L 313.607451 63.583914 
L 317.553832 64.138358 
L 321.500214 63.791435 
L 325.446595 64.78892 
L 329.392977 64.091576 
L 333.339358 63.607506 
L 337.28574 62.328183 
L 341.232121 63.235409 
L 345.178503 63.3339 
L 349.124884 63.684377 
L 353.071266 63.059478 
L 357.017647 62.639611 
L 360.964029 61.719351 
L 364.91041 64.749222 
L 368.856791 63.073053 
L 372.803173 61.620893 
L 376.749554 62.327363 
L 380.695936 62.319194 
L 384.642317 63.058195 
L 388.588699 63.285072 
L 392.53508 63.182277 
L 396.481462 62.048339 
L 400.427843 62.09991 
L 404.374225 63.004821 
L 408.320606 61.296081 
L 416.213369 61.946437 
L 420.15975 62.083585 
L 424.106132 63.319551 
L 431.998895 60.503672 
L 435.945276 61.156071 
L 439.891658 61.930909 
L 443.838039 61.758032 
L 447.784421 62.36117 
L 451.730802 60.708995 
L 455.677184 62.951211 
L 459.623565 61.991356 
L 463.569947 59.556749 
L 467.516328 61.857627 
L 471.462709 60.850788 
L 475.409091 61.579116 
L 479.355472 61.6103 
L 483.301854 62.718151 
L 487.248235 61.650455 
L 491.194617 61.837351 
L 495.140998 60.827542 
L 499.08738 61.130647 
L 503.033761 62.817621 
L 506.980143 61.515773 
L 510.926524 62.659769 
L 518.819287 62.316963 
L 522.765668 61.420312 
L 526.71205 62.288809 
L 530.658431 63.357018 
L 534.604813 62.257866 
L 538.551194 62.27694 
L 542.497576 59.85765 
L 546.443957 60.237517 
L 550.390339 60.789231 
L 554.33672 62.13883 
L 558.283102 62.633542 
L 562.229483 62.918061 
L 570.122246 62.44969 
L 574.068627 62.395558 
L 574.068627 62.395558 
" clip-path="url(#p3e77e107c7)" style="fill: none; stroke: #9a031e; stroke-width: 2; stroke-linecap: square"/>
   </g>
   <g id="line2d_17">
    <path d="M 72.878182 291.06 
L 76.824563 291.06 
L 80.770945 190.19647 
L 84.717326 160.17705 
L 88.663708 149.03899 
L 92.610089 140.641663 
L 100.502852 130.593967 
L 104.449234 126.633993 
L 108.395615 122.866362 
L 112.341996 120.080292 
L 116.288378 117.483633 
L 120.234759 114.645859 
L 124.181141 112.258188 
L 128.127522 110.079106 
L 132.073904 108.044772 
L 136.020285 106.351204 
L 143.913048 103.666331 
L 159.698574 100.769492 
L 163.644955 99.999976 
L 167.591337 98.872906 
L 179.430481 97.488158 
L 191.269626 95.087932 
L 195.216007 94.736375 
L 203.10877 92.891156 
L 207.055152 92.435227 
L 211.001533 91.655602 
L 214.947914 90.575958 
L 218.894296 90.686994 
L 222.840677 89.699143 
L 234.679822 87.704342 
L 238.626203 87.205892 
L 242.572585 86.883427 
L 262.304492 84.481658 
L 266.250873 84.445276 
L 270.197255 83.829259 
L 282.036399 83.029557 
L 285.982781 83.060496 
L 301.768307 81.742106 
L 305.714688 81.877695 
L 309.66107 81.818274 
L 313.607451 81.533139 
L 317.553832 81.620808 
L 325.446595 81.27584 
L 329.392977 80.860302 
L 333.339358 80.939791 
L 341.232121 80.604235 
L 345.178503 80.770852 
L 349.124884 80.321924 
L 360.964029 80.081816 
L 364.91041 79.888708 
L 368.856791 79.885684 
L 372.803173 80.025802 
L 376.749554 80.035406 
L 380.695936 79.68279 
L 384.642317 79.518323 
L 388.588699 79.736597 
L 392.53508 79.447431 
L 396.481462 79.473274 
L 400.427843 79.293527 
L 412.266988 79.179633 
L 416.213369 78.896057 
L 428.052513 78.899254 
L 431.998895 78.986286 
L 435.945276 78.633009 
L 439.891658 78.866638 
L 443.838039 79.247771 
L 447.784421 79.069029 
L 451.730802 79.444439 
L 455.677184 79.031527 
L 459.623565 79.115577 
L 463.569947 79.420215 
L 467.516328 78.87564 
L 471.462709 78.913331 
L 475.409091 78.797422 
L 479.355472 79.072564 
L 483.301854 79.04558 
L 487.248235 78.813116 
L 495.140998 79.000878 
L 499.08738 78.688945 
L 503.033761 78.705056 
L 506.980143 78.978558 
L 510.926524 78.959748 
L 514.872906 79.432348 
L 518.819287 79.31522 
L 522.765668 79.641072 
L 526.71205 79.58388 
L 530.658431 79.26571 
L 534.604813 79.34531 
L 538.551194 79.28271 
L 542.497576 79.416704 
L 550.390339 79.354853 
L 554.33672 78.926884 
L 558.283102 79.142161 
L 562.229483 79.05894 
L 570.122246 79.593031 
L 574.068627 79.588599 
L 574.068627 79.588599 
" clip-path="url(#p3e77e107c7)" style="fill: none; stroke: #fb8b24; stroke-width: 2; stroke-linecap: square"/>
   </g>
   <g id="patch_6">
    <path d="M 47.72 303.64 
L 47.72 26.88 
" style="fill: none; stroke: #000000; stroke-width: 0.8; stroke-linejoin: miter; stroke-linecap: square"/>
   </g>
   <g id="patch_7">
    <path d="M 601.2 303.64 
L 601.2 26.88 
" style="fill: none; stroke: #000000; stroke-width: 0.8; stroke-linejoin: miter; stroke-linecap: square"/>
   </g>
   <g id="patch_8">
    <path d="M 47.72 303.64 
L 601.2 303.64 
" style="fill: none; stroke: #000000; stroke-width: 0.8; stroke-linejoin: miter; stroke-linecap: square"/>
   </g>
   <g id="patch_9">
    <path d="M 47.72 26.88 
L 601.2 26.88 
" style="fill: none; stroke: #000000; stroke-width: 0.8; stroke-linejoin: miter; stroke-linecap: square"/>
   </g>
   <g id="text_17">
    <!-- Trajectory Emotion Candidates -->
    <g transform="translate(232.42375 20.88) scale(0.12 -0.12)">
     <defs>
      <path id="DejaVuSans-54" d="M -19 4666 
L 3928 4666 
L 3928 4134 
L 2272 4134 
L 2272 0 
L 1638 0 
L 1638 4134 
L -19 4134 
L -19 4666 
z
" transform="scale(0.015625)"/>
      <path id="DejaVuSans-61" d="M 2194 1759 
Q 1497 1759 1228 1600 
Q 959 1441 959 1056 
Q 959 750 1161 570 
Q 1363 391 1709 391 
Q 2188 391 2477 730 
Q 2766 1069 2766 1631 
L 2766 1759 
L 2194 1759 
z
M 3341 1997 
L 3341 0 
L 2766 0 
L 2766 531 
Q 2569 213 2275 61 
Q 1981 -91 1556 -91 
Q 1019 -91 701 211 
Q 384 513 384 1019 
Q 384 1609 779 1909 
Q 1175 2209 1959 2209 
L 2766 2209 
L 2766 2266 
Q 2766 2663 2505 2880 
Q 2244 3097 1772 3097 
Q 1472 3097 1187 3025 
Q 903 2953 641 2809 
L 641 3341 
Q 956 3463 1253 3523 
Q 1550 3584 1831 3584 
Q 2591 3584 2966 3190 
Q 3341 2797 3341 1997 
z
" transform="scale(0.015625)"/>
      <path id="DejaVuSans-6a" d="M 603 3500 
L 1178 3500 
L 1178 -63 
Q 1178 -731 923 -1031 
Q 669 -1331 103 -1331 
L -116 -1331 
L -116 -844 
L 38 -844 
Q 366 -844 484 -692 
Q 603 -541 603 -63 
L 603 3500 
z
M 603 4863 
L 1178 4863 
L 1178 4134 
L 603 4134 
L 603 4863 
z
" transform="scale(0.015625)"/>
      <path id="DejaVuSans-79" d="M 2059 -325 
Q 1816 -950 1584 -1140 
Q 1353 -1331 966 -1331 
L 506 -1331 
L 506 -850 
L 844 -850 
Q 1081 -850 1212 -737 
Q 1344 -625 1503 -206 
L 1606 56 
L 191 3500 
L 800 3500 
L 1894 763 
L 2988 3500 
L 3597 3500 
L 2059 -325 
z
" transform="scale(0.015625)"/>
      <path id="DejaVuSans-45" d="M 628 4666 
L 3578 4666 
L 3578 4134 
L 1259 4134 
L 1259 2753 
L 3481 2753 
L 3481 2222 
L 1259 2222 
L 1259 531 
L 3634 531 
L 3634 0 
L 628 0 
L 628 4666 
z
" transform="scale(0.015625)"/>
      <path id="DejaVuSans-43" d="M 4122 4306 
L 4122 3641 
Q 3803 3938 3442 4084 
Q 3081 4231 2675 4231 
Q 1875 4231 1450 3742 
Q 1025 3253 1025 2328 
Q 1025 1406 1450 917 
Q 1875 428 2675 428 
Q 3081 428 3442 575 
Q 3803 722 4122 1019 
L 4122 359 
Q 3791 134 3420 21 
Q 3050 -91 2638 -91 
Q 1578 -91 968 557 
Q 359 1206 359 2328 
Q 359 3453 968 4101 
Q 1578 4750 2638 4750 
Q 3056 4750 3426 4639 
Q 3797 4528 4122 4306 
z
" transform="scale(0.015625)"/>
      <path id="DejaVuSans-64" d="M 2906 2969 
L 2906 4863 
L 3481 4863 
L 3481 0 
L 2906 0 
L 2906 525 
Q 2725 213 2448 61 
Q 2172 -91 1784 -91 
Q 1150 -91 751 415 
Q 353 922 353 1747 
Q 353 2572 751 3078 
Q 1150 3584 1784 3584 
Q 2172 3584 2448 3432 
Q 2725 3281 2906 2969 
z
M 947 1747 
Q 947 1113 1208 752 
Q 1469 391 1925 391 
Q 2381 391 2643 752 
Q 2906 1113 2906 1747 
Q 2906 2381 2643 2742 
Q 2381 3103 1925 3103 
Q 1469 3103 1208 2742 
Q 947 2381 947 1747 
z
" transform="scale(0.015625)"/>
     </defs>
     <use xlink:href="#DejaVuSans-54"/>
     <use xlink:href="#DejaVuSans-72" transform="translate(46.333984 0)"/>
     <use xlink:href="#DejaVuSans-61" transform="translate(87.447266 0)"/>
     <use xlink:href="#DejaVuSans-6a" transform="translate(148.726562 0)"/>
     <use xlink:href="#DejaVuSans-65" transform="translate(176.509766 0)"/>
     <use xlink:href="#DejaVuSans-63" transform="translate(238.033203 0)"/>
     <use xlink:href="#DejaVuSans-74" transform="translate(293.013672 0)"/>
     <use xlink:href="#DejaVuSans-6f" transform="translate(332.222656 0)"/>
     <use xlink:href="#DejaVuSans-72" transform="translate(393.404297 0)"/>
     <use xlink:href="#DejaVuSans-79" transform="translate(434.517578 0)"/>
     <use xlink:href="#DejaVuSans-20" transform="translate(493.697266 0)"/>
     <use xlink:href="#DejaVuSans-45" transform="translate(525.484375 0)"/>
     <use xlink:href="#DejaVuSans-6d" transform="translate(588.667969 0)"/>
     <use xlink:href="#DejaVuSans-6f" transform="translate(686.080078 0)"/>
     <use xlink:href="#DejaVuSans-74" transform="translate(747.261719 0)"/>
     <use xlink:href="#DejaVuSans-69" transform="translate(786.470703 0)"/>
     <use xlink:href="#DejaVuSans-6f" transform="translate(814.253906 0)"/>
     <use xlink:href="#DejaVuSans-6e" transform="translate(875.435547 0)"/>
     <use xlink:href="#DejaVuSans-20" transform="translate(938.814453 0)"/>
     <use xlink:href="#DejaVuSans-43" transform="translate(970.601562 0)"/>
     <use xlink:href="#DejaVuSans-61" transform="translate(1040.425781 0)"/>
     <use xlink:href="#DejaVuSans-6e" transform="translate(1101.705078 0)"/>
     <use xlink:href="#DejaVuSans-64" transform="translate(1165.083984 0)"/>
     <use xlink:href="#DejaVuSans-69" transform="translate(1228.560547 0)"/>
     <use xlink:href="#DejaVuSans-64" transform="translate(1256.34375 0)"/>
     <use xlink:href="#DejaVuSans-61" transform="translate(1319.820312 0)"/>
     <use xlink:href="#DejaVuSans-74" transform="translate(1381.099609 0)"/>
     <use xlink:href="#DejaVuSans-65" transform="translate(1420.308594 0)"/>
     <use xlink:href="#DejaVuSans-73" transform="translate(1481.832031 0)"/>
    </g>
   </g>
   <g id="legend_1">
    <g id="line2d_18">
     <path d="M 486.939062 259.425937 
L 496.939062 259.425937 
L 506.939062 259.425937 
" style="fill: none; stroke: #5f0f40; stroke-width: 2; stroke-linecap: square"/>
    </g>
    <g id="text_18">
     <!-- irritability -->
     <g transform="translate(514.939062 262.925937) scale(0.1 -0.1)">
      <defs>
       <path id="DejaVuSans-62" d="M 3116 1747 
Q 3116 2381 2855 2742 
Q 2594 3103 2138 3103 
Q 1681 3103 1420 2742 
Q 1159 2381 1159 1747 
Q 1159 1113 1420 752 
Q 1681 391 2138 391 
Q 2594 391 2855 752 
Q 3116 1113 3116 1747 
z
M 1159 2969 
Q 1341 3281 1617 3432 
Q 1894 3584 2278 3584 
Q 2916 3584 3314 3078 
Q 3713 2572 3713 1747 
Q 3713 922 3314 415 
Q 2916 -91 2278 -91 
Q 1894 -91 1617 61 
Q 1341 213 1159 525 
L 1159 0 
L 581 0 
L 581 4863 
L 1159 4863 
L 1159 2969 
z
" transform="scale(0.015625)"/>
       <path id="DejaVuSans-6c" d="M 603 4863 
L 1178 4863 
L 1178 0 
L 603 0 
L 603 4863 
z
" transform="scale(0.015625)"/>
      </defs>
      <use xlink:href="#DejaVuSans-69"/>
      <use xlink:href="#DejaVuSans-72" transform="translate(27.783203 0)"/>
      <use xlink:href="#DejaVuSans-72" transform="translate(67.146484 0)"/>
      <use xlink:href="#DejaVuSans-69" transform="translate(108.259766 0)"/>
      <use xlink:href="#DejaVuSans-74" transform="translate(136.042969 0)"/>
      <use xlink:href="#DejaVuSans-61" transform="translate(175.251953 0)"/>
      <use xlink:href="#DejaVuSans-62" transform="translate(236.53125 0)"/>
      <use xlink:href="#DejaVuSans-69" transform="translate(300.007812 0)"/>
      <use xlink:href="#DejaVuSans-6c" transform="translate(327.791016 0)"/>
      <use xlink:href="#DejaVuSans-69" transform="translate(355.574219 0)"/>
      <use xlink:href="#DejaVuSans-74" transform="translate(383.357422 0)"/>
      <use xlink:href="#DejaVuSans-79" transform="translate(422.566406 0)"/>
     </g>
    </g>
    <g id="line2d_19">
     <path d="M 486.939062 274.104062 
L 496.939062 274.104062 
L 506.939062 274.104062 
" style="fill: none; stroke: #9a031e; stroke-width: 2; stroke-linecap: square"/>
    </g>
    <g id="text_19">
     <!-- anger_pressure -->
     <g transform="translate(514.939062 277.604062) scale(0.1 -0.1)">
      <defs>
       <path id="DejaVuSans-67" d="M 2906 1791 
Q 2906 2416 2648 2759 
Q 2391 3103 1925 3103 
Q 1463 3103 1205 2759 
Q 947 2416 947 1791 
Q 947 1169 1205 825 
Q 1463 481 1925 481 
Q 2391 481 2648 825 
Q 2906 1169 2906 1791 
z
M 3481 434 
Q 3481 -459 3084 -895 
Q 2688 -1331 1869 -1331 
Q 1566 -1331 1297 -1286 
Q 1028 -1241 775 -1147 
L 775 -588 
Q 1028 -725 1275 -790 
Q 1522 -856 1778 -856 
Q 2344 -856 2625 -561 
Q 2906 -266 2906 331 
L 2906 616 
Q 2728 306 2450 153 
Q 2172 0 1784 0 
Q 1141 0 747 490 
Q 353 981 353 1791 
Q 353 2603 747 3093 
Q 1141 3584 1784 3584 
Q 2172 3584 2450 3431 
Q 2728 3278 2906 2969 
L 2906 3500 
L 3481 3500 
L 3481 434 
z
" transform="scale(0.015625)"/>
       <path id="DejaVuSans-5f" d="M 3263 -1063 
L 3263 -1509 
L -63 -1509 
L -63 -1063 
L 3263 -1063 
z
" transform="scale(0.015625)"/>
       <path id="DejaVuSans-70" d="M 1159 525 
L 1159 -1331 
L 581 -1331 
L 581 3500 
L 1159 3500 
L 1159 2969 
Q 1341 3281 1617 3432 
Q 1894 3584 2278 3584 
Q 2916 3584 3314 3078 
Q 3713 2572 3713 1747 
Q 3713 922 3314 415 
Q 2916 -91 2278 -91 
Q 1894 -91 1617 61 
Q 1341 213 1159 525 
z
M 3116 1747 
Q 3116 2381 2855 2742 
Q 2594 3103 2138 3103 
Q 1681 3103 1420 2742 
Q 1159 2381 1159 1747 
Q 1159 1113 1420 752 
Q 1681 391 2138 391 
Q 2594 391 2855 752 
Q 3116 1113 3116 1747 
z
" transform="scale(0.015625)"/>
       <path id="DejaVuSans-75" d="M 544 1381 
L 544 3500 
L 1119 3500 
L 1119 1403 
Q 1119 906 1312 657 
Q 1506 409 1894 409 
Q 2359 409 2629 706 
Q 2900 1003 2900 1516 
L 2900 3500 
L 3475 3500 
L 3475 0 
L 2900 0 
L 2900 538 
Q 2691 219 2414 64 
Q 2138 -91 1772 -91 
Q 1169 -91 856 284 
Q 544 659 544 1381 
z
M 1991 3584 
L 1991 3584 
z
" transform="scale(0.015625)"/>
      </defs>
      <use xlink:href="#DejaVuSans-61"/>
      <use xlink:href="#DejaVuSans-6e" transform="translate(61.279297 0)"/>
      <use xlink:href="#DejaVuSans-67" transform="translate(124.658203 0)"/>
      <use xlink:href="#DejaVuSans-65" transform="translate(188.134766 0)"/>
      <use xlink:href="#DejaVuSans-72" transform="translate(249.658203 0)"/>
      <use xlink:href="#DejaVuSans-5f" transform="translate(290.771484 0)"/>
      <use xlink:href="#DejaVuSans-70" transform="translate(340.771484 0)"/>
      <use xlink:href="#DejaVuSans-72" transform="translate(404.248047 0)"/>
      <use xlink:href="#DejaVuSans-65" transform="translate(443.111328 0)"/>
      <use xlink:href="#DejaVuSans-73" transform="translate(504.634766 0)"/>
      <use xlink:href="#DejaVuSans-73" transform="translate(556.734375 0)"/>
      <use xlink:href="#DejaVuSans-75" transform="translate(608.833984 0)"/>
      <use xlink:href="#DejaVuSans-72" transform="translate(672.212891 0)"/>
      <use xlink:href="#DejaVuSans-65" transform="translate(711.076172 0)"/>
     </g>
    </g>
    <g id="line2d_20">
     <path d="M 486.939062 289.060312 
L 496.939062 289.060312 
L 506.939062 289.060312 
" style="fill: none; stroke: #fb8b24; stroke-width: 2; stroke-linecap: square"/>
    </g>
    <g id="text_20">
     <!-- guardedness -->
     <g transform="translate(514.939062 292.560312) scale(0.1 -0.1)">
      <use xlink:href="#DejaVuSans-67"/>
      <use xlink:href="#DejaVuSans-75" transform="translate(63.476562 0)"/>
      <use xlink:href="#DejaVuSans-61" transform="translate(126.855469 0)"/>
      <use xlink:href="#DejaVuSans-72" transform="translate(188.134766 0)"/>
      <use xlink:href="#DejaVuSans-64" transform="translate(227.498047 0)"/>
      <use xlink:href="#DejaVuSans-65" transform="translate(290.974609 0)"/>
      <use xlink:href="#DejaVuSans-64" transform="translate(352.498047 0)"/>
      <use xlink:href="#DejaVuSans-6e" transform="translate(415.974609 0)"/>
      <use xlink:href="#DejaVuSans-65" transform="translate(479.353516 0)"/>
      <use xlink:href="#DejaVuSans-73" transform="translate(540.876953 0)"/>
      <use xlink:href="#DejaVuSans-73" transform="translate(592.976562 0)"/>
     </g>
    </g>
   </g>
  </g>
 </g>
 <defs>
  <clipPath id="p3e77e107c7">
   <rect x="47.72" y="26.88" width="553.48" height="276.76"/>
  </clipPath>
 </defs>
</svg>
