<?xml version="1.0" encoding="utf-8" standalone="no"?>
<!DOCTYPE svg PUBLIC "-//W3C//DTD SVG 1.1//EN"
  "http://www.w3.org/Graphics/SVG/1.1/DTD/svg11.dtd">
<svg xmlns:xlink="http://www.w3.org/1999/xlink" width="612pt" height="345.6pt" viewBox="0 0 612 345.6" xmlns="http://www.w3.org/2000/svg" version="1.1">
 <metadata>
  <rdf:RDF xmlns:dc="http://purl.org/dc/elements/1.1/" xmlns:cc="http://creativecommons.org/ns#" xmlns:rdf="http://www.w3.org/1999/02/22-rdf-syntax-ns#">
   <cc:Work>
    <dc:type rdf:resource="http://purl.org/dc/dcmitype/StillImage"/>
    <dc:date>2026-04-09T20:42:09.635839</dc:date>
    <dc:format>image/svg+xml</dc:format>
    <dc:creator>
     <cc:Agent>
      <dc:title>Matplotlib v3.10.8, https://matplotlib.org/</dc:title>
     </cc:Agent>
    </dc:creator>
   </cc:Work>
  </rdf:RDF>
 </metadata>
 <defs>
  <style type="text/css">*{stroke-linejoin: round; stroke-linecap: butt}</style>
 </defs>
 <g id="figure_1">
  <g id="patch_1">
   <path d="M 0 345.6 
L 612 345.6 
L 612 0 
L 0 0 
z
" style="fill: #ffffff"/>
  </g>
  <g id="axes_1">
   <g id="patch_2">
    <path d="M 47.72 303.64 
L 601.2 303.64 
L 601.2 26.88 
L 47.72 26.88 
z
" style="fill: #ffffff"/>
   </g>
   <g id="patch_3">
    <path d="M 72.878182 303.64 
L 78.797754 303.64 
L 78.797754 26.88 
L 72.878182 26.88 
z
" clip-path="url(#p02cb1ee332)" style="fill: #dddddd; opacity: 0.12; stroke: #dddddd; stroke-linejoin: miter"/>
   </g>
   <g id="patch_4">
    <path d="M 80.770945 303.64 
L 90.636898 303.64 
L 90.636898 26.88 
L 80.770945 26.88 
z
" clip-path="url(#p02cb1ee332)" style="fill: #fee08b; opacity: 0.12; stroke: #fee08b; stroke-linejoin: miter"/>
   </g>
   <g id="patch_5">
    <path d="M 92.610089 303.64 
L 576.041818 303.64 
L 576.041818 26.88 
L 92.610089 26.88 
z
" clip-path="url(#p02cb1ee332)" style="fill: #d73027; opacity: 0.12; stroke: #d73027; stroke-linejoin: miter"/>
   </g>
   <g id="matplotlib.axis_1">
    <g id="xtick_1">
     <g id="line2d_1">
      <defs>
       <path id="maae387f1ff" d="M 0 0 
L 0 3.5 
" style="stroke: #000000; stroke-width: 0.8"/>
      </defs>
      <g>
       <use xlink:href="#maae387f1ff" x="72.878182" y="303.64" style="stroke: #000000; stroke-width: 0.8"/>
      </g>
     </g>
     <g id="text_1">
      <!-- 0 -->
      <g transform="translate(69.696932 318.238437) scale(0.1 -0.1)">
       <defs>
        <path id="DejaVuSans-30" d="M 2034 4250 
Q 1547 4250 1301 3770 
Q 1056 3291 1056 2328 
Q 1056 1369 1301 889 
Q 1547 409 2034 409 
Q 2525 409 2770 889 
Q 3016 1369 3016 2328 
Q 3016 3291 2770 3770 
Q 2525 4250 2034 4250 
z
M 2034 4750 
Q 2819 4750 3233 4129 
Q 3647 3509 3647 2328 
Q 3647 1150 3233 529 
Q 2819 -91 2034 -91 
Q 1250 -91 836 529 
Q 422 1150 422 2328 
Q 422 3509 836 4129 
Q 1250 4750 2034 4750 
z
" transform="scale(0.015625)"/>
       </defs>
       <use xlink:href="#DejaVuSans-30"/>
      </g>
     </g>
    </g>
    <g id="xtick_2">
     <g id="line2d_2">
      <g>
       <use xlink:href="#maae387f1ff" x="151.805811" y="303.64" style="stroke: #000000; stroke-width: 0.8"/>
      </g>
     </g>
     <g id="text_2">
      <!-- 20 -->
      <g transform="translate(145.443311 318.238437) scale(0.1 -0.1)">
       <defs>
        <path id="DejaVuSans-32" d="M 1228 531 
L 3431 531 
L 3431 0 
L 469 0 
L 469 531 
Q 828 903 1448 1529 
Q 2069 2156 2228 2338 
Q 2531 2678 2651 2914 
Q 2772 3150 2772 3378 
Q 2772 3750 2511 3984 
Q 2250 4219 1831 4219 
Q 1534 4219 1204 4116 
Q 875 4013 500 3803 
L 500 4441 
Q 881 4594 1212 4672 
Q 1544 4750 1819 4750 
Q 2544 4750 2975 4387 
Q 3406 4025 3406 3419 
Q 3406 3131 3298 2873 
Q 3191 2616 2906 2266 
Q 2828 2175 2409 1742 
Q 1991 1309 1228 531 
z
" transform="scale(0.015625)"/>
       </defs>
       <use xlink:href="#DejaVuSans-32"/>
       <use xlink:href="#DejaVuSans-30" transform="translate(63.623047 0)"/>
      </g>
     </g>
    </g>
    <g id="xtick_3">
     <g id="line2d_3">
      <g>
       <use xlink:href="#maae387f1ff" x="230.73344" y="303.64" style="stroke: #000000; stroke-width: 0.8"/>
      </g>
     </g>
     <g id="text_3">
      <!-- 40 -->
      <g transform="translate(224.37094 318.238437) scale(0.1 -0.1)">
       <defs>
        <path id="DejaVuSans-34" d="M 2419 4116 
L 825 1625 
L 2419 1625 
L 2419 4116 
z
M 2253 4666 
L 3047 4666 
L 3047 1625 
L 3713 1625 
L 3713 1100 
L 3047 1100 
L 3047 0 
L 2419 0 
L 2419 1100 
L 313 1100 
L 313 1709 
L 2253 4666 
z
" transform="scale(0.015625)"/>
       </defs>
       <use xlink:href="#DejaVuSans-34"/>
       <use xlink:href="#DejaVuSans-30" transform="translate(63.623047 0)"/>
      </g>
     </g>
    </g>
    <g id="xtick_4">
     <g id="line2d_4">
      <g>
       <use xlink:href="#maae387f1ff" x="309.66107" y="303.64" style="stroke: #000000; stroke-width: 0.8"/>
      </g>
     </g>
     <g id="text_4">
      <!-- 60 -->
      <g transform="translate(303.29857 318.238437) scale(0.1 -0.1)">
       <defs>
        <path id="DejaVuSans-36" d="M 2113 2584 
Q 1688 2584 1439 2293 
Q 1191 2003 1191 1497 
Q 1191 994 1439 701 
Q 1688 409 2113 409 
Q 2538 409 2786 701 
Q 3034 994 3034 1497 
Q 3034 2003 2786 2293 
Q 2538 2584 2113 2584 
z
M 3366 4563 
L 3366 3988 
Q 3128 4100 2886 4159 
Q 2644 4219 2406 4219 
Q 1781 4219 1451 3797 
Q 1122 3375 1075 2522 
Q 1259 2794 1537 2939 
Q 1816 3084 2150 3084 
Q 2853 3084 3261 2657 
Q 3669 2231 3669 1497 
Q 3669 778 3244 343 
Q 2819 -91 2113 -91 
Q 1303 -91 875 529 
Q 447 1150 447 2328 
Q 447 3434 972 4092 
Q 1497 4750 2381 4750 
Q 2619 4750 2861 4703 
Q 3103 4656 3366 4563 
z
" transform="scale(0.015625)"/>
       </defs>
       <use xlink:href="#DejaVuSans-36"/>
       <use xlink:href="#DejaVuSans-30" transform="translate(63.623047 0)"/>
      </g>
     </g>
    </g>
    <g id="xtick_5">
     <g id="line2d_5">
      <g>
       <use xlink:href="#maae387f1ff" x="388.588699" y="303.64" style="stroke: #000000; stroke-width: 0.8"/>
      </g>
     </g>
     <g id="text_5">
      <!-- 80 -->
      <g transform="translate(382.226199 318.238437) scale(0.1 -0.1)">
       <defs>
        <path id="DejaVuSans-38" d="M 2034 2216 
Q 1584 2216 1326 1975 
Q 1069 1734 1069 1313 
Q 1069 891 1326 650 
Q 1584 409 2034 409 
Q 2484 409 2743 651 
Q 3003 894 3003 1313 
Q 3003 1734 2745 1975 
Q 2488 2216 2034 2216 
z
M 1403 2484 
Q 997 2584 770 2862 
Q 544 3141 544 3541 
Q 544 4100 942 4425 
Q 1341 4750 2034 4750 
Q 2731 4750 3128 4425 
Q 3525 4100 3525 3541 
Q 3525 3141 3298 2862 
Q 3072 2584 2669 2484 
Q 3125 2378 3379 2068 
Q 3634 1759 3634 1313 
Q 3634 634 3220 271 
Q 2806 -91 2034 -91 
Q 1263 -91 848 271 
Q 434 634 434 1313 
Q 434 1759 690 2068 
Q 947 2378 1403 2484 
z
M 1172 3481 
Q 1172 3119 1398 2916 
Q 1625 2713 2034 2713 
Q 2441 2713 2670 2916 
Q 2900 3119 2900 3481 
Q 2900 3844 2670 4047 
Q 2441 4250 2034 4250 
Q 1625 4250 1398 4047 
Q 1172 3844 1172 3481 
z
" transform="scale(0.015625)"/>
       </defs>
       <use xlink:href="#DejaVuSans-38"/>
       <use xlink:href="#DejaVuSans-30" transform="translate(63.623047 0)"/>
      </g>
     </g>
    </g>
    <g id="xtick_6">
     <g id="line2d_6">
      <g>
       <use xlink:href="#maae387f1ff" x="467.516328" y="303.64" style="stroke: #000000; stroke-width: 0.8"/>
      </g>
     </g>
     <g id="text_6">
      <!-- 100 -->
      <g transform="translate(457.972578 318.238437) scale(0.1 -0.1)">
       <defs>
        <path id="DejaVuSans-31" d="M 794 531 
L 1825 531 
L 1825 4091 
L 703 3866 
L 703 4441 
L 1819 4666 
L 2450 4666 
L 2450 531 
L 3481 531 
L 3481 0 
L 794 0 
L 794 531 
z
" transform="scale(0.015625)"/>
       </defs>
       <use xlink:href="#DejaVuSans-31"/>
       <use xlink:href="#DejaVuSans-30" transform="translate(63.623047 0)"/>
       <use xlink:href="#DejaVuSans-30" transform="translate(127.246094 0)"/>
      </g>
     </g>
    </g>
    <g id="xtick_7">
     <g id="line2d_7">
      <g>
       <use xlink:href="#maae387f1ff" x="546.443957" y="303.64" style="stroke: #000000; stroke-width: 0.8"/>
      </g>
     </g>
     <g id="text_7">
      <!-- 120 -->
      <g transform="translate(536.900207 318.238437) scale(0.1 -0.1)">
       <use xlink:href="#DejaVuSans-31"/>
       <use xlink:href="#DejaVuSans-32" transform="translate(63.623047 0)"/>
       <use xlink:href="#DejaVuSans-30" transform="translate(127.246094 0)"/>
      </g>
     </g>
    </g>
    <g id="text_8">
     <!-- tick -->
     <g transform="translate(315.46625 331.916562) scale(0.1 -0.1)">
      <defs>
       <path id="DejaVuSans-74" d="M 1172 4494 
L 1172 3500 
L 2356 3500 
L 2356 3053 
L 1172 3053 
L 1172 1153 
Q 1172 725 1289 603 
Q 1406 481 1766 481 
L 2356 481 
L 2356 0 
L 1766 0 
Q 1100 0 847 248 
Q 594 497 594 1153 
L 594 3053 
L 172 3053 
L 172 3500 
L 594 3500 
L 594 4494 
L 1172 4494 
z
" transform="scale(0.015625)"/>
       <path id="DejaVuSans-69" d="M 603 3500 
L 1178 3500 
L 1178 0 
L 603 0 
L 603 3500 
z
M 603 4863 
L 1178 4863 
L 1178 4134 
L 603 4134 
L 603 4863 
z
" transform="scale(0.015625)"/>
       <path id="DejaVuSans-63" d="M 3122 3366 
L 3122 2828 
Q 2878 2963 2633 3030 
Q 2388 3097 2138 3097 
Q 1578 3097 1268 2742 
Q 959 2388 959 1747 
Q 959 1106 1268 751 
Q 1578 397 2138 397 
Q 2388 397 2633 464 
Q 2878 531 3122 666 
L 3122 134 
Q 2881 22 2623 -34 
Q 2366 -91 2075 -91 
Q 1284 -91 818 406 
Q 353 903 353 1747 
Q 353 2603 823 3093 
Q 1294 3584 2113 3584 
Q 2378 3584 2631 3529 
Q 2884 3475 3122 3366 
z
" transform="scale(0.015625)"/>
       <path id="DejaVuSans-6b" d="M 581 4863 
L 1159 4863 
L 1159 1991 
L 2875 3500 
L 3609 3500 
L 1753 1863 
L 3688 0 
L 2938 0 
L 1159 1709 
L 1159 0 
L 581 0 
L 581 4863 
z
" transform="scale(0.015625)"/>
      </defs>
      <use xlink:href="#DejaVuSans-74"/>
      <use xlink:href="#DejaVuSans-69" transform="translate(39.208984 0)"/>
      <use xlink:href="#DejaVuSans-63" transform="translate(66.992188 0)"/>
      <use xlink:href="#DejaVuSans-6b" transform="translate(121.972656 0)"/>
     </g>
    </g>
   </g>
   <g id="matplotlib.axis_2">
    <g id="ytick_1">
     <g id="line2d_8">
      <defs>
       <path id="m0ebdba6a77" d="M 0 0 
L -3.5 0 
" style="stroke: #000000; stroke-width: 0.8"/>
      </defs>
      <g>
       <use xlink:href="#m0ebdba6a77" x="47.72" y="291.06" style="stroke: #000000; stroke-width: 0.8"/>
      </g>
     </g>
     <g id="text_9">
      <!-- 0.0 -->
      <g transform="translate(24.816875 294.859219) scale(0.1 -0.1)">
       <defs>
        <path id="DejaVuSans-2e" d="M 684 794 
L 1344 794 
L 1344 0 
L 684 0 
L 684 794 
z
" transform="scale(0.015625)"/>
       </defs>
       <use xlink:href="#DejaVuSans-30"/>
       <use xlink:href="#DejaVuSans-2e" transform="translate(63.623047 0)"/>
       <use xlink:href="#DejaVuSans-30" transform="translate(95.410156 0)"/>
      </g>
     </g>
    </g>
    <g id="ytick_2">
     <g id="line2d_9">
      <g>
       <use xlink:href="#m0ebdba6a77" x="47.72" y="252.225555" style="stroke: #000000; stroke-width: 0.8"/>
      </g>
     </g>
     <g id="text_10">
      <!-- 0.1 -->
      <g transform="translate(24.816875 256.024773) scale(0.1 -0.1)">
       <use xlink:href="#DejaVuSans-30"/>
       <use xlink:href="#DejaVuSans-2e" transform="translate(63.623047 0)"/>
       <use xlink:href="#DejaVuSans-31" transform="translate(95.410156 0)"/>
      </g>
     </g>
    </g>
    <g id="ytick_3">
     <g id="line2d_10">
      <g>
       <use xlink:href="#m0ebdba6a77" x="47.72" y="213.391109" style="stroke: #000000; stroke-width: 0.8"/>
      </g>
     </g>
     <g id="text_11">
      <!-- 0.2 -->
      <g transform="translate(24.816875 217.190328) scale(0.1 -0.1)">
       <use xlink:href="#DejaVuSans-30"/>
       <use xlink:href="#DejaVuSans-2e" transform="translate(63.623047 0)"/>
       <use xlink:href="#DejaVuSans-32" transform="translate(95.410156 0)"/>
      </g>
     </g>
    </g>
    <g id="ytick_4">
     <g id="line2d_11">
      <g>
       <use xlink:href="#m0ebdba6a77" x="47.72" y="174.556664" style="stroke: #000000; stroke-width: 0.8"/>
      </g>
     </g>
     <g id="text_12">
      <!-- 0.3 -->
      <g transform="translate(24.816875 178.355883) scale(0.1 -0.1)">
       <defs>
        <path id="DejaVuSans-33" d="M 2597 2516 
Q 3050 2419 3304 2112 
Q 3559 1806 3559 1356 
Q 3559 666 3084 287 
Q 2609 -91 1734 -91 
Q 1441 -91 1130 -33 
Q 819 25 488 141 
L 488 750 
Q 750 597 1062 519 
Q 1375 441 1716 441 
Q 2309 441 2620 675 
Q 2931 909 2931 1356 
Q 2931 1769 2642 2001 
Q 2353 2234 1838 2234 
L 1294 2234 
L 1294 2753 
L 1863 2753 
Q 2328 2753 2575 2939 
Q 2822 3125 2822 3475 
Q 2822 3834 2567 4026 
Q 2313 4219 1838 4219 
Q 1578 4219 1281 4162 
Q 984 4106 628 3988 
L 628 4550 
Q 988 4650 1302 4700 
Q 1616 4750 1894 4750 
Q 2613 4750 3031 4423 
Q 3450 4097 3450 3541 
Q 3450 3153 3228 2886 
Q 3006 2619 2597 2516 
z
" transform="scale(0.015625)"/>
       </defs>
       <use xlink:href="#DejaVuSans-30"/>
       <use xlink:href="#DejaVuSans-2e" transform="translate(63.623047 0)"/>
       <use xlink:href="#DejaVuSans-33" transform="translate(95.410156 0)"/>
      </g>
     </g>
    </g>
    <g id="ytick_5">
     <g id="line2d_12">
      <g>
       <use xlink:href="#m0ebdba6a77" x="47.72" y="135.722219" style="stroke: #000000; stroke-width: 0.8"/>
      </g>
     </g>
     <g id="text_13">
      <!-- 0.4 -->
      <g transform="translate(24.816875 139.521438) scale(0.1 -0.1)">
       <use xlink:href="#DejaVuSans-30"/>
       <use xlink:href="#DejaVuSans-2e" transform="translate(63.623047 0)"/>
       <use xlink:href="#DejaVuSans-34" transform="translate(95.410156 0)"/>
      </g>
     </g>
    </g>
    <g id="ytick_6">
     <g id="line2d_13">
      <g>
       <use xlink:href="#m0ebdba6a77" x="47.72" y="96.887774" style="stroke: #000000; stroke-width: 0.8"/>
      </g>
     </g>
     <g id="text_14">
      <!-- 0.5 -->
      <g transform="translate(24.816875 100.686992) scale(0.1 -0.1)">
       <defs>
        <path id="DejaVuSans-35" d="M 691 4666 
L 3169 4666 
L 3169 4134 
L 1269 4134 
L 1269 2991 
Q 1406 3038 1543 3061 
Q 1681 3084 1819 3084 
Q 2600 3084 3056 2656 
Q 3513 2228 3513 1497 
Q 3513 744 3044 326 
Q 2575 -91 1722 -91 
Q 1428 -91 1123 -41 
Q 819 9 494 109 
L 494 744 
Q 775 591 1075 516 
Q 1375 441 1709 441 
Q 2250 441 2565 725 
Q 2881 1009 2881 1497 
Q 2881 1984 2565 2268 
Q 2250 2553 1709 2553 
Q 1456 2553 1204 2497 
Q 953 2441 691 2322 
L 691 4666 
z
" transform="scale(0.015625)"/>
       </defs>
       <use xlink:href="#DejaVuSans-30"/>
       <use xlink:href="#DejaVuSans-2e" transform="translate(63.623047 0)"/>
       <use xlink:href="#DejaVuSans-35" transform="translate(95.410156 0)"/>
      </g>
     </g>
    </g>
    <g id="ytick_7">
     <g id="line2d_14">
      <g>
       <use xlink:href="#m0ebdba6a77" x="47.72" y="58.053328" style="stroke: #000000; stroke-width: 0.8"/>
      </g>
     </g>
     <g id="text_15">
      <!-- 0.6 -->
      <g transform="translate(24.816875 61.852547) scale(0.1 -0.1)">
       <use xlink:href="#DejaVuSans-30"/>
       <use xlink:href="#DejaVuSans-2e" transform="translate(63.623047 0)"/>
       <use xlink:href="#DejaVuSans-36" transform="translate(95.410156 0)"/>
      </g>
     </g>
    </g>
    <g id="text_16">
     <!-- emotion score -->
     <g transform="translate(18.737188 200.865469) rotate(-90) scale(0.1 -0.1)">
      <defs>
       <path id="DejaVuSans-65" d="M 3597 1894 
L 3597 1613 
L 953 1613 
Q 991 1019 1311 708 
Q 1631 397 2203 397 
Q 2534 397 2845 478 
Q 3156 559 3463 722 
L 3463 178 
Q 3153 47 2828 -22 
Q 2503 -91 2169 -91 
Q 1331 -91 842 396 
Q 353 884 353 1716 
Q 353 2575 817 3079 
Q 1281 3584 2069 3584 
Q 2775 3584 3186 3129 
Q 3597 2675 3597 1894 
z
M 3022 2063 
Q 3016 2534 2758 2815 
Q 2500 3097 2075 3097 
Q 1594 3097 1305 2825 
Q 1016 2553 972 2059 
L 3022 2063 
z
" transform="scale(0.015625)"/>
       <path id="DejaVuSans-6d" d="M 3328 2828 
Q 3544 3216 3844 3400 
Q 4144 3584 4550 3584 
Q 5097 3584 5394 3201 
Q 5691 2819 5691 2113 
L 5691 0 
L 5113 0 
L 5113 2094 
Q 5113 2597 4934 2840 
Q 4756 3084 4391 3084 
Q 3944 3084 3684 2787 
Q 3425 2491 3425 1978 
L 3425 0 
L 2847 0 
L 2847 2094 
Q 2847 2600 2669 2842 
Q 2491 3084 2119 3084 
Q 1678 3084 1418 2786 
Q 1159 2488 1159 1978 
L 1159 0 
L 581 0 
L 581 3500 
L 1159 3500 
L 1159 2956 
Q 1356 3278 1631 3431 
Q 1906 3584 2284 3584 
Q 2666 3584 2933 3390 
Q 3200 3197 3328 2828 
z
" transform="scale(0.015625)"/>
       <path id="DejaVuSans-6f" d="M 1959 3097 
Q 1497 3097 1228 2736 
Q 959 2375 959 1747 
Q 959 1119 1226 758 
Q 1494 397 1959 397 
Q 2419 397 2687 759 
Q 2956 1122 2956 1747 
Q 2956 2369 2687 2733 
Q 2419 3097 1959 3097 
z
M 1959 3584 
Q 2709 3584 3137 3096 
Q 3566 2609 3566 1747 
Q 3566 888 3137 398 
Q 2709 -91 1959 -91 
Q 1206 -91 779 398 
Q 353 888 353 1747 
Q 353 2609 779 3096 
Q 1206 3584 1959 3584 
z
" transform="scale(0.015625)"/>
       <path id="DejaVuSans-6e" d="M 3513 2113 
L 3513 0 
L 2938 0 
L 2938 2094 
Q 2938 2591 2744 2837 
Q 2550 3084 2163 3084 
Q 1697 3084 1428 2787 
Q 1159 2491 1159 1978 
L 1159 0 
L 581 0 
L 581 3500 
L 1159 3500 
L 1159 2956 
Q 1366 3272 1645 3428 
Q 1925 3584 2291 3584 
Q 2894 3584 3203 3211 
Q 3513 2838 3513 2113 
z
" transform="scale(0.015625)"/>
       <path id="DejaVuSans-20" transform="scale(0.015625)"/>
       <path id="DejaVuSans-73" d="M 2834 3397 
L 2834 2853 
Q 2591 2978 2328 3040 
Q 2066 3103 1784 3103 
Q 1356 3103 1142 2972 
Q 928 2841 928 2578 
Q 928 2378 1081 2264 
Q 1234 2150 1697 2047 
L 1894 2003 
Q 2506 1872 2764 1633 
Q 3022 1394 3022 966 
Q 3022 478 2636 193 
Q 2250 -91 1575 -91 
Q 1294 -91 989 -36 
Q 684 19 347 128 
L 347 722 
Q 666 556 975 473 
Q 1284 391 1588 391 
Q 1994 391 2212 530 
Q 2431 669 2431 922 
Q 2431 1156 2273 1281 
Q 2116 1406 1581 1522 
L 1381 1569 
Q 847 1681 609 1914 
Q 372 2147 372 2553 
Q 372 3047 722 3315 
Q 1072 3584 1716 3584 
Q 2034 3584 2315 3537 
Q 2597 3491 2834 3397 
z
" transform="scale(0.015625)"/>
       <path id="DejaVuSans-72" d="M 2631 2963 
Q 2534 3019 2420 3045 
Q 2306 3072 2169 3072 
Q 1681 3072 1420 2755 
Q 1159 2438 1159 1844 
L 1159 0 
L 581 0 
L 581 3500 
L 1159 3500 
L 1159 2956 
Q 1341 3275 1631 3429 
Q 1922 3584 2338 3584 
Q 2397 3584 2469 3576 
Q 2541 3569 2628 3553 
L 2631 2963 
z
" transform="scale(0.015625)"/>
      </defs>
      <use xlink:href="#DejaVuSans-65"/>
      <use xlink:href="#DejaVuSans-6d" transform="translate(61.523438 0)"/>
      <use xlink:href="#DejaVuSans-6f" transform="translate(158.935547 0)"/>
      <use xlink:href="#DejaVuSans-74" transform="translate(220.117188 0)"/>
      <use xlink:href="#DejaVuSans-69" transform="translate(259.326172 0)"/>
      <use xlink:href="#DejaVuSans-6f" transform="translate(287.109375 0)"/>
      <use xlink:href="#DejaVuSans-6e" transform="translate(348.291016 0)"/>
      <use xlink:href="#DejaVuSans-20" transform="translate(411.669922 0)"/>
      <use xlink:href="#DejaVuSans-73" transform="translate(443.457031 0)"/>
      <use xlink:href="#DejaVuSans-63" transform="translate(495.556641 0)"/>
      <use xlink:href="#DejaVuSans-6f" transform="translate(550.537109 0)"/>
      <use xlink:href="#DejaVuSans-72" transform="translate(611.71875 0)"/>
      <use xlink:href="#DejaVuSans-65" transform="translate(650.582031 0)"/>
     </g>
    </g>
   </g>
   <g id="line2d_15">
    <path d="M 72.878182 291.06 
L 76.824563 291.06 
L 80.770945 180.29878 
L 84.717326 176.863796 
L 88.663708 153.470489 
L 92.610089 134.86971 
L 96.556471 125.67116 
L 100.502852 119.746518 
L 104.449234 113.259317 
L 108.395615 107.62918 
L 112.341996 102.609111 
L 116.288378 97.175973 
L 120.234759 91.19464 
L 124.181141 84.9925 
L 128.127522 79.184441 
L 132.073904 73.021484 
L 139.966667 66.070591 
L 143.913048 63.713449 
L 147.85943 62.198155 
L 151.805811 61.379054 
L 155.752193 60.204553 
L 159.698574 59.233118 
L 163.644955 58.426919 
L 167.591337 57.917346 
L 171.537718 57.574808 
L 175.4841 57.67383 
L 179.430481 57.141077 
L 183.376863 57.214841 
L 187.323244 56.02613 
L 191.269626 55.054677 
L 195.216007 55.417038 
L 199.162389 54.37756 
L 203.10877 55.056465 
L 207.055152 53.816435 
L 211.001533 54.19868 
L 214.947914 54.095888 
L 218.894296 53.162318 
L 222.840677 52.104632 
L 226.787059 51.609854 
L 230.73344 51.570475 
L 234.679822 51.131381 
L 238.626203 50.445131 
L 242.572585 50.242819 
L 246.518966 49.387734 
L 250.465348 49.044287 
L 254.411729 48.439874 
L 258.358111 47.95281 
L 262.304492 47.2577 
L 266.250873 47.964626 
L 270.197255 47.234818 
L 278.090018 46.508231 
L 289.929162 46.19517 
L 293.875544 45.379988 
L 297.821925 44.938871 
L 301.768307 45.094893 
L 305.714688 44.433648 
L 309.66107 44.037539 
L 313.607451 43.849075 
L 317.553832 44.579545 
L 321.500214 44.253972 
L 325.446595 43.131164 
L 329.392977 42.990139 
L 333.339358 43.427236 
L 337.28574 43.408209 
L 341.232121 43.134018 
L 345.178503 43.658106 
L 349.124884 43.105965 
L 353.071266 43.406033 
L 360.964029 42.88504 
L 364.91041 43.550111 
L 368.856791 42.997501 
L 372.803173 43.159942 
L 376.749554 42.719561 
L 396.481462 41.86376 
L 400.427843 43.286394 
L 404.374225 42.186522 
L 408.320606 42.144055 
L 412.266988 42.423295 
L 416.213369 41.723776 
L 420.15975 41.340023 
L 424.106132 41.857748 
L 428.052513 41.183834 
L 431.998895 41.667245 
L 435.945276 41.489174 
L 439.891658 40.931592 
L 447.784421 40.630922 
L 451.730802 41.128232 
L 455.677184 41.425931 
L 459.623565 41.289928 
L 463.569947 42.880182 
L 467.516328 41.34045 
L 471.462709 41.368524 
L 475.409091 40.397305 
L 479.355472 40.65562 
L 483.301854 39.764538 
L 491.194617 40.96086 
L 499.08738 40.242022 
L 506.980143 40.35772 
L 510.926524 40.151876 
L 514.872906 40.362291 
L 518.819287 41.328959 
L 522.765668 40.916486 
L 526.71205 41.034211 
L 530.658431 42.517036 
L 534.604813 41.542447 
L 538.551194 41.108137 
L 542.497576 41.088061 
L 546.443957 39.686528 
L 550.390339 39.46 
L 554.33672 40.663461 
L 562.229483 42.759339 
L 566.175865 41.817029 
L 570.122246 42.141092 
L 574.068627 41.141355 
L 574.068627 41.141355 
" clip-path="url(#p02cb1ee332)" style="fill: none; stroke: #5f0f40; stroke-width: 2; stroke-linecap: square"/>
   </g>
   <g id="line2d_16">
    <path d="M 72.878182 232.808332 
L 76.824563 232.808332 
L 80.770945 112.014806 
L 84.717326 137.3282 
L 88.663708 143.643028 
L 92.610089 138.538087 
L 100.502852 131.395019 
L 104.449234 126.605592 
L 108.395615 123.668704 
L 112.341996 120.001175 
L 116.288378 116.67251 
L 120.234759 112.235394 
L 124.181141 107.333165 
L 128.127522 103.309953 
L 132.073904 98.156293 
L 139.966667 92.903759 
L 147.85943 90.561745 
L 151.805811 89.55913 
L 155.752193 87.851901 
L 159.698574 87.089494 
L 163.644955 85.688347 
L 167.591337 85.567889 
L 171.537718 84.776251 
L 175.4841 84.906577 
L 179.430481 83.089948 
L 183.376863 83.211626 
L 187.323244 81.885952 
L 191.269626 81.330003 
L 195.216007 81.371149 
L 199.162389 80.970701 
L 203.10877 81.545552 
L 207.055152 80.41281 
L 211.001533 80.818321 
L 214.947914 80.660453 
L 218.894296 79.442802 
L 222.840677 78.634527 
L 226.787059 78.111994 
L 230.73344 77.431148 
L 234.679822 76.910951 
L 238.626203 76.159594 
L 242.572585 75.625929 
L 246.518966 74.720123 
L 258.358111 72.436664 
L 262.304492 72.311088 
L 266.250873 72.359874 
L 270.197255 71.611727 
L 278.090018 70.791763 
L 282.036399 70.326827 
L 285.982781 70.053115 
L 289.929162 70.046677 
L 293.875544 69.229105 
L 297.821925 69.008666 
L 301.768307 69.145822 
L 309.66107 67.721206 
L 313.607451 67.758489 
L 317.553832 68.196905 
L 321.500214 68.092614 
L 325.446595 66.427219 
L 329.392977 66.847991 
L 333.339358 66.509849 
L 337.28574 66.962708 
L 341.232121 66.963419 
L 345.178503 67.469666 
L 349.124884 66.31587 
L 353.071266 66.644202 
L 360.964029 66.135292 
L 364.91041 67.048032 
L 368.856791 66.108024 
L 372.803173 66.599812 
L 376.749554 66.173598 
L 380.695936 66.251866 
L 384.642317 66.032541 
L 388.588699 65.57588 
L 392.53508 65.70902 
L 396.481462 65.581172 
L 400.427843 67.047539 
L 404.374225 65.906749 
L 408.320606 65.533223 
L 412.266988 65.885828 
L 420.15975 64.518004 
L 424.106132 65.232193 
L 428.052513 64.949041 
L 431.998895 65.708828 
L 435.945276 65.281565 
L 443.838039 64.558189 
L 447.784421 64.125184 
L 451.730802 64.912159 
L 455.677184 65.516474 
L 459.623565 65.091206 
L 463.569947 66.373396 
L 467.516328 64.892883 
L 471.462709 65.475237 
L 475.409091 64.183744 
L 479.355472 64.401991 
L 483.301854 63.51449 
L 487.248235 63.80857 
L 491.194617 64.367358 
L 495.140998 64.104555 
L 499.08738 63.709712 
L 503.033761 64.091254 
L 510.926524 63.060498 
L 514.872906 63.611616 
L 518.819287 64.537602 
L 522.765668 63.861566 
L 526.71205 64.233076 
L 530.658431 66.051007 
L 538.551194 64.639202 
L 542.497576 63.81621 
L 546.443957 62.680366 
L 550.390339 62.135641 
L 554.33672 63.307087 
L 558.283102 65.020803 
L 562.229483 66.291552 
L 566.175865 65.034231 
L 570.122246 65.676168 
L 574.068627 64.193353 
L 574.068627 64.193353 
" clip-path="url(#p02cb1ee332)" style="fill: none; stroke: #9a031e; stroke-width: 2; stroke-linecap: square"/>
   </g>
   <g id="line2d_17">
    <path d="M 72.878182 291.06 
L 76.824563 291.06 
L 80.770945 200.250176 
L 84.717326 168.814165 
L 88.663708 150.454238 
L 92.610089 143.335586 
L 96.556471 136.72814 
L 100.502852 131.635045 
L 104.449234 127.234102 
L 124.181141 108.378443 
L 128.127522 104.181616 
L 132.073904 100.180987 
L 136.020285 96.630164 
L 139.966667 94.327004 
L 143.913048 92.679951 
L 147.85943 91.481079 
L 151.805811 90.408987 
L 155.752193 90.270147 
L 163.644955 89.273948 
L 167.591337 88.634099 
L 171.537718 88.202451 
L 175.4841 87.957534 
L 179.430481 88.097515 
L 183.376863 87.560399 
L 187.323244 87.556662 
L 195.216007 86.693949 
L 199.162389 86.655911 
L 207.055152 86.176554 
L 218.894296 85.744955 
L 222.840677 85.262157 
L 226.787059 84.965271 
L 230.73344 85.204824 
L 238.626203 84.874694 
L 242.572585 84.660707 
L 250.465348 84.406261 
L 254.411729 83.906018 
L 258.358111 83.942912 
L 262.304492 83.680236 
L 266.250873 83.918909 
L 274.143636 83.725359 
L 305.714688 82.630123 
L 309.66107 82.596145 
L 317.553832 82.19211 
L 321.500214 82.399292 
L 325.446595 82.135631 
L 329.392977 82.284528 
L 333.339358 82.175285 
L 341.232121 82.336159 
L 353.071266 81.724519 
L 357.017647 81.974485 
L 360.964029 81.924035 
L 368.856791 82.259082 
L 372.803173 81.970317 
L 404.374225 81.312588 
L 408.320606 81.473878 
L 412.266988 81.457828 
L 416.213369 81.193282 
L 420.15975 81.505351 
L 424.106132 81.456093 
L 428.052513 81.199482 
L 431.998895 81.172615 
L 435.945276 81.002349 
L 447.784421 81.266127 
L 451.730802 81.055981 
L 455.677184 81.017581 
L 463.569947 81.229553 
L 467.516328 80.991898 
L 471.462709 80.941991 
L 475.409091 81.036254 
L 483.301854 80.855914 
L 487.248235 81.158913 
L 491.194617 80.989759 
L 495.140998 80.935094 
L 499.08738 81.086115 
L 503.033761 80.987846 
L 506.980143 81.192389 
L 510.926524 81.168757 
L 514.872906 80.921574 
L 518.819287 81.267651 
L 522.765668 81.068112 
L 526.71205 81.351751 
L 530.658431 81.183655 
L 534.604813 81.154717 
L 538.551194 81.249755 
L 542.497576 81.145966 
L 546.443957 81.191204 
L 550.390339 81.082293 
L 554.33672 81.254532 
L 558.283102 81.276286 
L 562.229483 81.118911 
L 566.175865 81.714688 
L 570.122246 81.381653 
L 574.068627 81.286009 
L 574.068627 81.286009 
" clip-path="url(#p02cb1ee332)" style="fill: none; stroke: #fb8b24; stroke-width: 2; stroke-linecap: square"/>
   </g>
   <g id="patch_6">
    <path d="M 47.72 303.64 
L 47.72 26.88 
" style="fill: none; stroke: #000000; stroke-width: 0.8; stroke-linejoin: miter; stroke-linecap: square"/>
   </g>
   <g id="patch_7">
    <path d="M 601.2 303.64 
L 601.2 26.88 
" style="fill: none; stroke: #000000; stroke-width: 0.8; stroke-linejoin: miter; stroke-linecap: square"/>
   </g>
   <g id="patch_8">
    <path d="M 47.72 303.64 
L 601.2 303.64 
" style="fill: none; stroke: #000000; stroke-width: 0.8; stroke-linejoin: miter; stroke-linecap: square"/>
   </g>
   <g id="patch_9">
    <path d="M 47.72 26.88 
L 601.2 26.88 
" style="fill: none; stroke: #000000; stroke-width: 0.8; stroke-linejoin: miter; stroke-linecap: square"/>
   </g>
   <g id="text_17">
    <!-- Trajectory Emotion Candidates -->
    <g transform="translate(232.42375 20.88) scale(0.12 -0.12)">
     <defs>
      <path id="DejaVuSans-54" d="M -19 4666 
L 3928 4666 
L 3928 4134 
L 2272 4134 
L 2272 0 
L 1638 0 
L 1638 4134 
L -19 4134 
L -19 4666 
z
" transform="scale(0.015625)"/>
      <path id="DejaVuSans-61" d="M 2194 1759 
Q 1497 1759 1228 1600 
Q 959 1441 959 1056 
Q 959 750 1161 570 
Q 1363 391 1709 391 
Q 2188 391 2477 730 
Q 2766 1069 2766 1631 
L 2766 1759 
L 2194 1759 
z
M 3341 1997 
L 3341 0 
L 2766 0 
L 2766 531 
Q 2569 213 2275 61 
Q 1981 -91 1556 -91 
Q 1019 -91 701 211 
Q 384 513 384 1019 
Q 384 1609 779 1909 
Q 1175 2209 1959 2209 
L 2766 2209 
L 2766 2266 
Q 2766 2663 2505 2880 
Q 2244 3097 1772 3097 
Q 1472 3097 1187 3025 
Q 903 2953 641 2809 
L 641 3341 
Q 956 3463 1253 3523 
Q 1550 3584 1831 3584 
Q 2591 3584 2966 3190 
Q 3341 2797 3341 1997 
z
" transform="scale(0.015625)"/>
      <path id="DejaVuSans-6a" d="M 603 3500 
L 1178 3500 
L 1178 -63 
Q 1178 -731 923 -1031 
Q 669 -1331 103 -1331 
L -116 -1331 
L -116 -844 
L 38 -844 
Q 366 -844 484 -692 
Q 603 -541 603 -63 
L 603 3500 
z
M 603 4863 
L 1178 4863 
L 1178 4134 
L 603 4134 
L 603 4863 
z
" transform="scale(0.015625)"/>
      <path id="DejaVuSans-79" d="M 2059 -325 
Q 1816 -950 1584 -1140 
Q 1353 -1331 966 -1331 
L 506 -1331 
L 506 -850 
L 844 -850 
Q 1081 -850 1212 -737 
Q 1344 -625 1503 -206 
L 1606 56 
L 191 3500 
L 800 3500 
L 1894 763 
L 2988 3500 
L 3597 3500 
L 2059 -325 
z
" transform="scale(0.015625)"/>
      <path id="DejaVuSans-45" d="M 628 4666 
L 3578 4666 
L 3578 4134 
L 1259 4134 
L 1259 2753 
L 3481 2753 
L 3481 2222 
L 1259 2222 
L 1259 531 
L 3634 531 
L 3634 0 
L 628 0 
L 628 4666 
z
" transform="scale(0.015625)"/>
      <path id="DejaVuSans-43" d="M 4122 4306 
L 4122 3641 
Q 3803 3938 3442 4084 
Q 3081 4231 2675 4231 
Q 1875 4231 1450 3742 
Q 1025 3253 1025 2328 
Q 1025 1406 1450 917 
Q 1875 428 2675 428 
Q 3081 428 3442 575 
Q 3803 722 4122 1019 
L 4122 359 
Q 3791 134 3420 21 
Q 3050 -91 2638 -91 
Q 1578 -91 968 557 
Q 359 1206 359 2328 
Q 359 3453 968 4101 
Q 1578 4750 2638 4750 
Q 3056 4750 3426 4639 
Q 3797 4528 4122 4306 
z
" transform="scale(0.015625)"/>
      <path id="DejaVuSans-64" d="M 2906 2969 
L 2906 4863 
L 3481 4863 
L 3481 0 
L 2906 0 
L 2906 525 
Q 2725 213 2448 61 
Q 2172 -91 1784 -91 
Q 1150 -91 751 415 
Q 353 922 353 1747 
Q 353 2572 751 3078 
Q 1150 3584 1784 3584 
Q 2172 3584 2448 3432 
Q 2725 3281 2906 2969 
z
M 947 1747 
Q 947 1113 1208 752 
Q 1469 391 1925 391 
Q 2381 391 2643 752 
Q 2906 1113 2906 1747 
Q 2906 2381 2643 2742 
Q 2381 3103 1925 3103 
Q 1469 3103 1208 2742 
Q 947 2381 947 1747 
z
" transform="scale(0.015625)"/>
     </defs>
     <use xlink:href="#DejaVuSans-54"/>
     <use xlink:href="#DejaVuSans-72" transform="translate(46.333984 0)"/>
     <use xlink:href="#DejaVuSans-61" transform="translate(87.447266 0)"/>
     <use xlink:href="#DejaVuSans-6a" transform="translate(148.726562 0)"/>
     <use xlink:href="#DejaVuSans-65" transform="translate(176.509766 0)"/>
     <use xlink:href="#DejaVuSans-63" transform="translate(238.033203 0)"/>
     <use xlink:href="#DejaVuSans-74" transform="translate(293.013672 0)"/>
     <use xlink:href="#DejaVuSans-6f" transform="translate(332.222656 0)"/>
     <use xlink:href="#DejaVuSans-72" transform="translate(393.404297 0)"/>
     <use xlink:href="#DejaVuSans-79" transform="translate(434.517578 0)"/>
     <use xlink:href="#DejaVuSans-20" transform="translate(493.697266 0)"/>
     <use xlink:href="#DejaVuSans-45" transform="translate(525.484375 0)"/>
     <use xlink:href="#DejaVuSans-6d" transform="translate(588.667969 0)"/>
     <use xlink:href="#DejaVuSans-6f" transform="translate(686.080078 0)"/>
     <use xlink:href="#DejaVuSans-74" transform="translate(747.261719 0)"/>
     <use xlink:href="#DejaVuSans-69" transform="translate(786.470703 0)"/>
     <use xlink:href="#DejaVuSans-6f" transform="translate(814.253906 0)"/>
     <use xlink:href="#DejaVuSans-6e" transform="translate(875.435547 0)"/>
     <use xlink:href="#DejaVuSans-20" transform="translate(938.814453 0)"/>
     <use xlink:href="#DejaVuSans-43" transform="translate(970.601562 0)"/>
     <use xlink:href="#DejaVuSans-61" transform="translate(1040.425781 0)"/>
     <use xlink:href="#DejaVuSans-6e" transform="translate(1101.705078 0)"/>
     <use xlink:href="#DejaVuSans-64" transform="translate(1165.083984 0)"/>
     <use xlink:href="#DejaVuSans-69" transform="translate(1228.560547 0)"/>
     <use xlink:href="#DejaVuSans-64" transform="translate(1256.34375 0)"/>
     <use xlink:href="#DejaVuSans-61" transform="translate(1319.820312 0)"/>
     <use xlink:href="#DejaVuSans-74" transform="translate(1381.099609 0)"/>
     <use xlink:href="#DejaVuSans-65" transform="translate(1420.308594 0)"/>
     <use xlink:href="#DejaVuSans-73" transform="translate(1481.832031 0)"/>
    </g>
   </g>
   <g id="legend_1">
    <g id="line2d_18">
     <path d="M 486.939062 259.425937 
L 496.939062 259.425937 
L 506.939062 259.425937 
" style="fill: none; stroke: #5f0f40; stroke-width: 2; stroke-linecap: square"/>
    </g>
    <g id="text_18">
     <!-- irritability -->
     <g transform="translate(514.939062 262.925937) scale(0.1 -0.1)">
      <defs>
       <path id="DejaVuSans-62" d="M 3116 1747 
Q 3116 2381 2855 2742 
Q 2594 3103 2138 3103 
Q 1681 3103 1420 2742 
Q 1159 2381 1159 1747 
Q 1159 1113 1420 752 
Q 1681 391 2138 391 
Q 2594 391 2855 752 
Q 3116 1113 3116 1747 
z
M 1159 2969 
Q 1341 3281 1617 3432 
Q 1894 3584 2278 3584 
Q 2916 3584 3314 3078 
Q 3713 2572 3713 1747 
Q 3713 922 3314 415 
Q 2916 -91 2278 -91 
Q 1894 -91 1617 61 
Q 1341 213 1159 525 
L 1159 0 
L 581 0 
L 581 4863 
L 1159 4863 
L 1159 2969 
z
" transform="scale(0.015625)"/>
       <path id="DejaVuSans-6c" d="M 603 4863 
L 1178 4863 
L 1178 0 
L 603 0 
L 603 4863 
z
" transform="scale(0.015625)"/>
      </defs>
      <use xlink:href="#DejaVuSans-69"/>
      <use xlink:href="#DejaVuSans-72" transform="translate(27.783203 0)"/>
      <use xlink:href="#DejaVuSans-72" transform="translate(67.146484 0)"/>
      <use xlink:href="#DejaVuSans-69" transform="translate(108.259766 0)"/>
      <use xlink:href="#DejaVuSans-74" transform="translate(136.042969 0)"/>
      <use xlink:href="#DejaVuSans-61" transform="translate(175.251953 0)"/>
      <use xlink:href="#DejaVuSans-62" transform="translate(236.53125 0)"/>
      <use xlink:href="#DejaVuSans-69" transform="translate(300.007812 0)"/>
      <use xlink:href="#DejaVuSans-6c" transform="translate(327.791016 0)"/>
      <use xlink:href="#DejaVuSans-69" transform="translate(355.574219 0)"/>
      <use xlink:href="#DejaVuSans-74" transform="translate(383.357422 0)"/>
      <use xlink:href="#DejaVuSans-79" transform="translate(422.566406 0)"/>
     </g>
    </g>
    <g id="line2d_19">
     <path d="M 486.939062 274.104062 
L 496.939062 274.104062 
L 506.939062 274.104062 
" style="fill: none; stroke: #9a031e; stroke-width: 2; stroke-linecap: square"/>
    </g>
    <g id="text_19">
     <!-- anger_pressure -->
     <g transform="translate(514.939062 277.604062) scale(0.1 -0.1)">
      <defs>
       <path id="DejaVuSans-67" d="M 2906 1791 
Q 2906 2416 2648 2759 
Q 2391 3103 1925 3103 
Q 1463 3103 1205 2759 
Q 947 2416 947 1791 
Q 947 1169 1205 825 
Q 1463 481 1925 481 
Q 2391 481 2648 825 
Q 2906 1169 2906 1791 
z
M 3481 434 
Q 3481 -459 3084 -895 
Q 2688 -1331 1869 -1331 
Q 1566 -1331 1297 -1286 
Q 1028 -1241 775 -1147 
L 775 -588 
Q 1028 -725 1275 -790 
Q 1522 -856 1778 -856 
Q 2344 -856 2625 -561 
Q 2906 -266 2906 331 
L 2906 616 
Q 2728 306 2450 153 
Q 2172 0 1784 0 
Q 1141 0 747 490 
Q 353 981 353 1791 
Q 353 2603 747 3093 
Q 1141 3584 1784 3584 
Q 2172 3584 2450 3431 
Q 2728 3278 2906 2969 
L 2906 3500 
L 3481 3500 
L 3481 434 
z
" transform="scale(0.015625)"/>
       <path id="DejaVuSans-5f" d="M 3263 -1063 
L 3263 -1509 
L -63 -1509 
L -63 -1063 
L 3263 -1063 
z
" transform="scale(0.015625)"/>
       <path id="DejaVuSans-70" d="M 1159 525 
L 1159 -1331 
L 581 -1331 
L 581 3500 
L 1159 3500 
L 1159 2969 
Q 1341 3281 1617 3432 
Q 1894 3584 2278 3584 
Q 2916 3584 3314 3078 
Q 3713 2572 3713 1747 
Q 3713 922 3314 415 
Q 2916 -91 2278 -91 
Q 1894 -91 1617 61 
Q 1341 213 1159 525 
z
M 3116 1747 
Q 3116 2381 2855 2742 
Q 2594 3103 2138 3103 
Q 1681 3103 1420 2742 
Q 1159 2381 1159 1747 
Q 1159 1113 1420 752 
Q 1681 391 2138 391 
Q 2594 391 2855 752 
Q 3116 1113 3116 1747 
z
" transform="scale(0.015625)"/>
       <path id="DejaVuSans-75" d="M 544 1381 
L 544 3500 
L 1119 3500 
L 1119 1403 
Q 1119 906 1312 657 
Q 1506 409 1894 409 
Q 2359 409 2629 706 
Q 2900 1003 2900 1516 
L 2900 3500 
L 3475 3500 
L 3475 0 
L 2900 0 
L 2900 538 
Q 2691 219 2414 64 
Q 2138 -91 1772 -91 
Q 1169 -91 856 284 
Q 544 659 544 1381 
z
M 1991 3584 
L 1991 3584 
z
" transform="scale(0.015625)"/>
      </defs>
      <use xlink:href="#DejaVuSans-61"/>
      <use xlink:href="#DejaVuSans-6e" transform="translate(61.279297 0)"/>
      <use xlink:href="#DejaVuSans-67" transform="translate(124.658203 0)"/>
      <use xlink:href="#DejaVuSans-65" transform="translate(188.134766 0)"/>
      <use xlink:href="#DejaVuSans-72" transform="translate(249.658203 0)"/>
      <use xlink:href="#DejaVuSans-5f" transform="translate(290.771484 0)"/>
      <use xlink:href="#DejaVuSans-70" transform="translate(340.771484 0)"/>
      <use xlink:href="#DejaVuSans-72" transform="translate(404.248047 0)"/>
      <use xlink:href="#DejaVuSans-65" transform="translate(443.111328 0)"/>
      <use xlink:href="#DejaVuSans-73" transform="translate(504.634766 0)"/>
      <use xlink:href="#DejaVuSans-73" transform="translate(556.734375 0)"/>
      <use xlink:href="#DejaVuSans-75" transform="translate(608.833984 0)"/>
      <use xlink:href="#DejaVuSans-72" transform="translate(672.212891 0)"/>
      <use xlink:href="#DejaVuSans-65" transform="translate(711.076172 0)"/>
     </g>
    </g>
    <g id="line2d_20">
     <path d="M 486.939062 289.060312 
L 496.939062 289.060312 
L 506.939062 289.060312 
" style="fill: none; stroke: #fb8b24; stroke-width: 2; stroke-linecap: square"/>
    </g>
    <g id="text_20">
     <!-- guardedness -->
     <g transform="translate(514.939062 292.560312) scale(0.1 -0.1)">
      <use xlink:href="#DejaVuSans-67"/>
      <use xlink:href="#DejaVuSans-75" transform="translate(63.476562 0)"/>
      <use xlink:href="#DejaVuSans-61" transform="translate(126.855469 0)"/>
      <use xlink:href="#DejaVuSans-72" transform="translate(188.134766 0)"/>
      <use xlink:href="#DejaVuSans-64" transform="translate(227.498047 0)"/>
      <use xlink:href="#DejaVuSans-65" transform="translate(290.974609 0)"/>
      <use xlink:href="#DejaVuSans-64" transform="translate(352.498047 0)"/>
      <use xlink:href="#DejaVuSans-6e" transform="translate(415.974609 0)"/>
      <use xlink:href="#DejaVuSans-65" transform="translate(479.353516 0)"/>
      <use xlink:href="#DejaVuSans-73" transform="translate(540.876953 0)"/>
      <use xlink:href="#DejaVuSans-73" transform="translate(592.976562 0)"/>
     </g>
    </g>
   </g>
  </g>
 </g>
 <defs>
  <clipPath id="p02cb1ee332">
   <rect x="47.72" y="26.88" width="553.48" height="276.76"/>
  </clipPath>
 </defs>
</svg>
