<?xml version="1.0" encoding="utf-8" standalone="no"?>
<!DOCTYPE svg PUBLIC "-//W3C//DTD SVG 1.1//EN"
  "http://www.w3.org/Graphics/SVG/1.1/DTD/svg11.dtd">
<svg xmlns:xlink="http://www.w3.org/1999/xlink" width="612pt" height="345.6pt" viewBox="0 0 612 345.6" xmlns="http://www.w3.org/2000/svg" version="1.1">
 <metadata>
  <rdf:RDF xmlns:dc="http://purl.org/dc/elements/1.1/" xmlns:cc="http://creativecommons.org/ns#" xmlns:rdf="http://www.w3.org/1999/02/22-rdf-syntax-ns#">
   <cc:Work>
    <dc:type rdf:resource="http://purl.org/dc/dcmitype/StillImage"/>
    <dc:date>2026-04-09T20:43:43.114377</dc:date>
    <dc:format>image/svg+xml</dc:format>
    <dc:creator>
     <cc:Agent>
      <dc:title>Matplotlib v3.10.8, https://matplotlib.org/</dc:title>
     </cc:Agent>
    </dc:creator>
   </cc:Work>
  </rdf:RDF>
 </metadata>
 <defs>
  <style type="text/css">*{stroke-linejoin: round; stroke-linecap: butt}</style>
 </defs>
 <g id="figure_1">
  <g id="patch_1">
   <path d="M 0 345.6 
L 612 345.6 
L 612 0 
L 0 0 
z
" style="fill: #ffffff"/>
  </g>
  <g id="axes_1">
   <g id="patch_2">
    <path d="M 47.72 303.64 
L 597.625372 303.64 
L 597.625372 26.88 
L 47.72 26.88 
z
" style="fill: #ffffff"/>
   </g>
   <g id="patch_3">
    <path d="M 72.715699 303.64 
L 80.486382 303.64 
L 80.486382 26.88 
L 72.715699 26.88 
z
" clip-path="url(#pe390e92936)" style="fill: #dddddd; opacity: 0.12; stroke: #dddddd; stroke-linejoin: miter"/>
   </g>
   <g id="patch_4">
    <path d="M 83.07661 303.64 
L 96.027749 303.64 
L 96.027749 26.88 
L 83.07661 26.88 
z
" clip-path="url(#pe390e92936)" style="fill: #fee08b; opacity: 0.12; stroke: #fee08b; stroke-linejoin: miter"/>
   </g>
   <g id="patch_5">
    <path d="M 98.617977 303.64 
L 572.629673 303.64 
L 572.629673 26.88 
L 98.617977 26.88 
z
" clip-path="url(#pe390e92936)" style="fill: #d73027; opacity: 0.12; stroke: #d73027; stroke-linejoin: miter"/>
   </g>
   <g id="matplotlib.axis_1">
    <g id="xtick_1">
     <g id="line2d_1">
      <defs>
       <path id="m9196735d35" d="M 0 0 
L 0 3.5 
" style="stroke: #000000; stroke-width: 0.8"/>
      </defs>
      <g>
       <use xlink:href="#m9196735d35" x="72.715699" y="303.64" style="stroke: #000000; stroke-width: 0.8"/>
      </g>
     </g>
     <g id="text_1">
      <!-- 0 -->
      <g transform="translate(69.534449 318.238437) scale(0.1 -0.1)">
       <defs>
        <path id="DejaVuSans-30" d="M 2034 4250 
Q 1547 4250 1301 3770 
Q 1056 3291 1056 2328 
Q 1056 1369 1301 889 
Q 1547 409 2034 409 
Q 2525 409 2770 889 
Q 3016 1369 3016 2328 
Q 3016 3291 2770 3770 
Q 2525 4250 2034 4250 
z
M 2034 4750 
Q 2819 4750 3233 4129 
Q 3647 3509 3647 2328 
Q 3647 1150 3233 529 
Q 2819 -91 2034 -91 
Q 1250 -91 836 529 
Q 422 1150 422 2328 
Q 422 3509 836 4129 
Q 1250 4750 2034 4750 
z
" transform="scale(0.015625)"/>
       </defs>
       <use xlink:href="#DejaVuSans-30"/>
      </g>
     </g>
    </g>
    <g id="xtick_2">
     <g id="line2d_2">
      <g>
       <use xlink:href="#m9196735d35" x="176.324813" y="303.64" style="stroke: #000000; stroke-width: 0.8"/>
      </g>
     </g>
     <g id="text_2">
      <!-- 20 -->
      <g transform="translate(169.962313 318.238437) scale(0.1 -0.1)">
       <defs>
        <path id="DejaVuSans-32" d="M 1228 531 
L 3431 531 
L 3431 0 
L 469 0 
L 469 531 
Q 828 903 1448 1529 
Q 2069 2156 2228 2338 
Q 2531 2678 2651 2914 
Q 2772 3150 2772 3378 
Q 2772 3750 2511 3984 
Q 2250 4219 1831 4219 
Q 1534 4219 1204 4116 
Q 875 4013 500 3803 
L 500 4441 
Q 881 4594 1212 4672 
Q 1544 4750 1819 4750 
Q 2544 4750 2975 4387 
Q 3406 4025 3406 3419 
Q 3406 3131 3298 2873 
Q 3191 2616 2906 2266 
Q 2828 2175 2409 1742 
Q 1991 1309 1228 531 
z
" transform="scale(0.015625)"/>
       </defs>
       <use xlink:href="#DejaVuSans-32"/>
       <use xlink:href="#DejaVuSans-30" transform="translate(63.623047 0)"/>
      </g>
     </g>
    </g>
    <g id="xtick_3">
     <g id="line2d_3">
      <g>
       <use xlink:href="#m9196735d35" x="279.933927" y="303.64" style="stroke: #000000; stroke-width: 0.8"/>
      </g>
     </g>
     <g id="text_3">
      <!-- 40 -->
      <g transform="translate(273.571427 318.238437) scale(0.1 -0.1)">
       <defs>
        <path id="DejaVuSans-34" d="M 2419 4116 
L 825 1625 
L 2419 1625 
L 2419 4116 
z
M 2253 4666 
L 3047 4666 
L 3047 1625 
L 3713 1625 
L 3713 1100 
L 3047 1100 
L 3047 0 
L 2419 0 
L 2419 1100 
L 313 1100 
L 313 1709 
L 2253 4666 
z
" transform="scale(0.015625)"/>
       </defs>
       <use xlink:href="#DejaVuSans-34"/>
       <use xlink:href="#DejaVuSans-30" transform="translate(63.623047 0)"/>
      </g>
     </g>
    </g>
    <g id="xtick_4">
     <g id="line2d_4">
      <g>
       <use xlink:href="#m9196735d35" x="383.54304" y="303.64" style="stroke: #000000; stroke-width: 0.8"/>
      </g>
     </g>
     <g id="text_4">
      <!-- 60 -->
      <g transform="translate(377.18054 318.238437) scale(0.1 -0.1)">
       <defs>
        <path id="DejaVuSans-36" d="M 2113 2584 
Q 1688 2584 1439 2293 
Q 1191 2003 1191 1497 
Q 1191 994 1439 701 
Q 1688 409 2113 409 
Q 2538 409 2786 701 
Q 3034 994 3034 1497 
Q 3034 2003 2786 2293 
Q 2538 2584 2113 2584 
z
M 3366 4563 
L 3366 3988 
Q 3128 4100 2886 4159 
Q 2644 4219 2406 4219 
Q 1781 4219 1451 3797 
Q 1122 3375 1075 2522 
Q 1259 2794 1537 2939 
Q 1816 3084 2150 3084 
Q 2853 3084 3261 2657 
Q 3669 2231 3669 1497 
Q 3669 778 3244 343 
Q 2819 -91 2113 -91 
Q 1303 -91 875 529 
Q 447 1150 447 2328 
Q 447 3434 972 4092 
Q 1497 4750 2381 4750 
Q 2619 4750 2861 4703 
Q 3103 4656 3366 4563 
z
" transform="scale(0.015625)"/>
       </defs>
       <use xlink:href="#DejaVuSans-36"/>
       <use xlink:href="#DejaVuSans-30" transform="translate(63.623047 0)"/>
      </g>
     </g>
    </g>
    <g id="xtick_5">
     <g id="line2d_5">
      <g>
       <use xlink:href="#m9196735d35" x="487.152154" y="303.64" style="stroke: #000000; stroke-width: 0.8"/>
      </g>
     </g>
     <g id="text_5">
      <!-- 80 -->
      <g transform="translate(480.789654 318.238437) scale(0.1 -0.1)">
       <defs>
        <path id="DejaVuSans-38" d="M 2034 2216 
Q 1584 2216 1326 1975 
Q 1069 1734 1069 1313 
Q 1069 891 1326 650 
Q 1584 409 2034 409 
Q 2484 409 2743 651 
Q 3003 894 3003 1313 
Q 3003 1734 2745 1975 
Q 2488 2216 2034 2216 
z
M 1403 2484 
Q 997 2584 770 2862 
Q 544 3141 544 3541 
Q 544 4100 942 4425 
Q 1341 4750 2034 4750 
Q 2731 4750 3128 4425 
Q 3525 4100 3525 3541 
Q 3525 3141 3298 2862 
Q 3072 2584 2669 2484 
Q 3125 2378 3379 2068 
Q 3634 1759 3634 1313 
Q 3634 634 3220 271 
Q 2806 -91 2034 -91 
Q 1263 -91 848 271 
Q 434 634 434 1313 
Q 434 1759 690 2068 
Q 947 2378 1403 2484 
z
M 1172 3481 
Q 1172 3119 1398 2916 
Q 1625 2713 2034 2713 
Q 2441 2713 2670 2916 
Q 2900 3119 2900 3481 
Q 2900 3844 2670 4047 
Q 2441 4250 2034 4250 
Q 1625 4250 1398 4047 
Q 1172 3844 1172 3481 
z
" transform="scale(0.015625)"/>
       </defs>
       <use xlink:href="#DejaVuSans-38"/>
       <use xlink:href="#DejaVuSans-30" transform="translate(63.623047 0)"/>
      </g>
     </g>
    </g>
    <g id="xtick_6">
     <g id="line2d_6">
      <g>
       <use xlink:href="#m9196735d35" x="590.761268" y="303.64" style="stroke: #000000; stroke-width: 0.8"/>
      </g>
     </g>
     <g id="text_6">
      <!-- 100 -->
      <g transform="translate(581.217518 318.238437) scale(0.1 -0.1)">
       <defs>
        <path id="DejaVuSans-31" d="M 794 531 
L 1825 531 
L 1825 4091 
L 703 3866 
L 703 4441 
L 1819 4666 
L 2450 4666 
L 2450 531 
L 3481 531 
L 3481 0 
L 794 0 
L 794 531 
z
" transform="scale(0.015625)"/>
       </defs>
       <use xlink:href="#DejaVuSans-31"/>
       <use xlink:href="#DejaVuSans-30" transform="translate(63.623047 0)"/>
       <use xlink:href="#DejaVuSans-30" transform="translate(127.246094 0)"/>
      </g>
     </g>
    </g>
    <g id="text_7">
     <!-- tick -->
     <g transform="translate(313.678936 331.916562) scale(0.1 -0.1)">
      <defs>
       <path id="DejaVuSans-74" d="M 1172 4494 
L 1172 3500 
L 2356 3500 
L 2356 3053 
L 1172 3053 
L 1172 1153 
Q 1172 725 1289 603 
Q 1406 481 1766 481 
L 2356 481 
L 2356 0 
L 1766 0 
Q 1100 0 847 248 
Q 594 497 594 1153 
L 594 3053 
L 172 3053 
L 172 3500 
L 594 3500 
L 594 4494 
L 1172 4494 
z
" transform="scale(0.015625)"/>
       <path id="DejaVuSans-69" d="M 603 3500 
L 1178 3500 
L 1178 0 
L 603 0 
L 603 3500 
z
M 603 4863 
L 1178 4863 
L 1178 4134 
L 603 4134 
L 603 4863 
z
" transform="scale(0.015625)"/>
       <path id="DejaVuSans-63" d="M 3122 3366 
L 3122 2828 
Q 2878 2963 2633 3030 
Q 2388 3097 2138 3097 
Q 1578 3097 1268 2742 
Q 959 2388 959 1747 
Q 959 1106 1268 751 
Q 1578 397 2138 397 
Q 2388 397 2633 464 
Q 2878 531 3122 666 
L 3122 134 
Q 2881 22 2623 -34 
Q 2366 -91 2075 -91 
Q 1284 -91 818 406 
Q 353 903 353 1747 
Q 353 2603 823 3093 
Q 1294 3584 2113 3584 
Q 2378 3584 2631 3529 
Q 2884 3475 3122 3366 
z
" transform="scale(0.015625)"/>
       <path id="DejaVuSans-6b" d="M 581 4863 
L 1159 4863 
L 1159 1991 
L 2875 3500 
L 3609 3500 
L 1753 1863 
L 3688 0 
L 2938 0 
L 1159 1709 
L 1159 0 
L 581 0 
L 581 4863 
z
" transform="scale(0.015625)"/>
      </defs>
      <use xlink:href="#DejaVuSans-74"/>
      <use xlink:href="#DejaVuSans-69" transform="translate(39.208984 0)"/>
      <use xlink:href="#DejaVuSans-63" transform="translate(66.992188 0)"/>
      <use xlink:href="#DejaVuSans-6b" transform="translate(121.972656 0)"/>
     </g>
    </g>
   </g>
   <g id="matplotlib.axis_2">
    <g id="ytick_1">
     <g id="line2d_7">
      <defs>
       <path id="m44cc955f51" d="M 0 0 
L -3.5 0 
" style="stroke: #000000; stroke-width: 0.8"/>
      </defs>
      <g>
       <use xlink:href="#m44cc955f51" x="47.72" y="291.06" style="stroke: #000000; stroke-width: 0.8"/>
      </g>
     </g>
     <g id="text_8">
      <!-- 0.0 -->
      <g transform="translate(24.816875 294.859219) scale(0.1 -0.1)">
       <defs>
        <path id="DejaVuSans-2e" d="M 684 794 
L 1344 794 
L 1344 0 
L 684 0 
L 684 794 
z
" transform="scale(0.015625)"/>
       </defs>
       <use xlink:href="#DejaVuSans-30"/>
       <use xlink:href="#DejaVuSans-2e" transform="translate(63.623047 0)"/>
       <use xlink:href="#DejaVuSans-30" transform="translate(95.410156 0)"/>
      </g>
     </g>
    </g>
    <g id="ytick_2">
     <g id="line2d_8">
      <g>
       <use xlink:href="#m44cc955f51" x="47.72" y="249.225885" style="stroke: #000000; stroke-width: 0.8"/>
      </g>
     </g>
     <g id="text_9">
      <!-- 0.1 -->
      <g transform="translate(24.816875 253.025104) scale(0.1 -0.1)">
       <use xlink:href="#DejaVuSans-30"/>
       <use xlink:href="#DejaVuSans-2e" transform="translate(63.623047 0)"/>
       <use xlink:href="#DejaVuSans-31" transform="translate(95.410156 0)"/>
      </g>
     </g>
    </g>
    <g id="ytick_3">
     <g id="line2d_9">
      <g>
       <use xlink:href="#m44cc955f51" x="47.72" y="207.39177" style="stroke: #000000; stroke-width: 0.8"/>
      </g>
     </g>
     <g id="text_10">
      <!-- 0.2 -->
      <g transform="translate(24.816875 211.190989) scale(0.1 -0.1)">
       <use xlink:href="#DejaVuSans-30"/>
       <use xlink:href="#DejaVuSans-2e" transform="translate(63.623047 0)"/>
       <use xlink:href="#DejaVuSans-32" transform="translate(95.410156 0)"/>
      </g>
     </g>
    </g>
    <g id="ytick_4">
     <g id="line2d_10">
      <g>
       <use xlink:href="#m44cc955f51" x="47.72" y="165.557655" style="stroke: #000000; stroke-width: 0.8"/>
      </g>
     </g>
     <g id="text_11">
      <!-- 0.3 -->
      <g transform="translate(24.816875 169.356874) scale(0.1 -0.1)">
       <defs>
        <path id="DejaVuSans-33" d="M 2597 2516 
Q 3050 2419 3304 2112 
Q 3559 1806 3559 1356 
Q 3559 666 3084 287 
Q 2609 -91 1734 -91 
Q 1441 -91 1130 -33 
Q 819 25 488 141 
L 488 750 
Q 750 597 1062 519 
Q 1375 441 1716 441 
Q 2309 441 2620 675 
Q 2931 909 2931 1356 
Q 2931 1769 2642 2001 
Q 2353 2234 1838 2234 
L 1294 2234 
L 1294 2753 
L 1863 2753 
Q 2328 2753 2575 2939 
Q 2822 3125 2822 3475 
Q 2822 3834 2567 4026 
Q 2313 4219 1838 4219 
Q 1578 4219 1281 4162 
Q 984 4106 628 3988 
L 628 4550 
Q 988 4650 1302 4700 
Q 1616 4750 1894 4750 
Q 2613 4750 3031 4423 
Q 3450 4097 3450 3541 
Q 3450 3153 3228 2886 
Q 3006 2619 2597 2516 
z
" transform="scale(0.015625)"/>
       </defs>
       <use xlink:href="#DejaVuSans-30"/>
       <use xlink:href="#DejaVuSans-2e" transform="translate(63.623047 0)"/>
       <use xlink:href="#DejaVuSans-33" transform="translate(95.410156 0)"/>
      </g>
     </g>
    </g>
    <g id="ytick_5">
     <g id="line2d_11">
      <g>
       <use xlink:href="#m44cc955f51" x="47.72" y="123.72354" style="stroke: #000000; stroke-width: 0.8"/>
      </g>
     </g>
     <g id="text_12">
      <!-- 0.4 -->
      <g transform="translate(24.816875 127.522759) scale(0.1 -0.1)">
       <use xlink:href="#DejaVuSans-30"/>
       <use xlink:href="#DejaVuSans-2e" transform="translate(63.623047 0)"/>
       <use xlink:href="#DejaVuSans-34" transform="translate(95.410156 0)"/>
      </g>
     </g>
    </g>
    <g id="ytick_6">
     <g id="line2d_12">
      <g>
       <use xlink:href="#m44cc955f51" x="47.72" y="81.889425" style="stroke: #000000; stroke-width: 0.8"/>
      </g>
     </g>
     <g id="text_13">
      <!-- 0.5 -->
      <g transform="translate(24.816875 85.688644) scale(0.1 -0.1)">
       <defs>
        <path id="DejaVuSans-35" d="M 691 4666 
L 3169 4666 
L 3169 4134 
L 1269 4134 
L 1269 2991 
Q 1406 3038 1543 3061 
Q 1681 3084 1819 3084 
Q 2600 3084 3056 2656 
Q 3513 2228 3513 1497 
Q 3513 744 3044 326 
Q 2575 -91 1722 -91 
Q 1428 -91 1123 -41 
Q 819 9 494 109 
L 494 744 
Q 775 591 1075 516 
Q 1375 441 1709 441 
Q 2250 441 2565 725 
Q 2881 1009 2881 1497 
Q 2881 1984 2565 2268 
Q 2250 2553 1709 2553 
Q 1456 2553 1204 2497 
Q 953 2441 691 2322 
L 691 4666 
z
" transform="scale(0.015625)"/>
       </defs>
       <use xlink:href="#DejaVuSans-30"/>
       <use xlink:href="#DejaVuSans-2e" transform="translate(63.623047 0)"/>
       <use xlink:href="#DejaVuSans-35" transform="translate(95.410156 0)"/>
      </g>
     </g>
    </g>
    <g id="ytick_7">
     <g id="line2d_13">
      <g>
       <use xlink:href="#m44cc955f51" x="47.72" y="40.05531" style="stroke: #000000; stroke-width: 0.8"/>
      </g>
     </g>
     <g id="text_14">
      <!-- 0.6 -->
      <g transform="translate(24.816875 43.854529) scale(0.1 -0.1)">
       <use xlink:href="#DejaVuSans-30"/>
       <use xlink:href="#DejaVuSans-2e" transform="translate(63.623047 0)"/>
       <use xlink:href="#DejaVuSans-36" transform="translate(95.410156 0)"/>
      </g>
     </g>
    </g>
    <g id="text_15">
     <!-- weighted signal -->
     <g transform="translate(18.737188 204.7475) rotate(-90) scale(0.1 -0.1)">
      <defs>
       <path id="DejaVuSans-77" d="M 269 3500 
L 844 3500 
L 1563 769 
L 2278 3500 
L 2956 3500 
L 3675 769 
L 4391 3500 
L 4966 3500 
L 4050 0 
L 3372 0 
L 2619 2869 
L 1863 0 
L 1184 0 
L 269 3500 
z
" transform="scale(0.015625)"/>
       <path id="DejaVuSans-65" d="M 3597 1894 
L 3597 1613 
L 953 1613 
Q 991 1019 1311 708 
Q 1631 397 2203 397 
Q 2534 397 2845 478 
Q 3156 559 3463 722 
L 3463 178 
Q 3153 47 2828 -22 
Q 2503 -91 2169 -91 
Q 1331 -91 842 396 
Q 353 884 353 1716 
Q 353 2575 817 3079 
Q 1281 3584 2069 3584 
Q 2775 3584 3186 3129 
Q 3597 2675 3597 1894 
z
M 3022 2063 
Q 3016 2534 2758 2815 
Q 2500 3097 2075 3097 
Q 1594 3097 1305 2825 
Q 1016 2553 972 2059 
L 3022 2063 
z
" transform="scale(0.015625)"/>
       <path id="DejaVuSans-67" d="M 2906 1791 
Q 2906 2416 2648 2759 
Q 2391 3103 1925 3103 
Q 1463 3103 1205 2759 
Q 947 2416 947 1791 
Q 947 1169 1205 825 
Q 1463 481 1925 481 
Q 2391 481 2648 825 
Q 2906 1169 2906 1791 
z
M 3481 434 
Q 3481 -459 3084 -895 
Q 2688 -1331 1869 -1331 
Q 1566 -1331 1297 -1286 
Q 1028 -1241 775 -1147 
L 775 -588 
Q 1028 -725 1275 -790 
Q 1522 -856 1778 -856 
Q 2344 -856 2625 -561 
Q 2906 -266 2906 331 
L 2906 616 
Q 2728 306 2450 153 
Q 2172 0 1784 0 
Q 1141 0 747 490 
Q 353 981 353 1791 
Q 353 2603 747 3093 
Q 1141 3584 1784 3584 
Q 2172 3584 2450 3431 
Q 2728 3278 2906 2969 
L 2906 3500 
L 3481 3500 
L 3481 434 
z
" transform="scale(0.015625)"/>
       <path id="DejaVuSans-68" d="M 3513 2113 
L 3513 0 
L 2938 0 
L 2938 2094 
Q 2938 2591 2744 2837 
Q 2550 3084 2163 3084 
Q 1697 3084 1428 2787 
Q 1159 2491 1159 1978 
L 1159 0 
L 581 0 
L 581 4863 
L 1159 4863 
L 1159 2956 
Q 1366 3272 1645 3428 
Q 1925 3584 2291 3584 
Q 2894 3584 3203 3211 
Q 3513 2838 3513 2113 
z
" transform="scale(0.015625)"/>
       <path id="DejaVuSans-64" d="M 2906 2969 
L 2906 4863 
L 3481 4863 
L 3481 0 
L 2906 0 
L 2906 525 
Q 2725 213 2448 61 
Q 2172 -91 1784 -91 
Q 1150 -91 751 415 
Q 353 922 353 1747 
Q 353 2572 751 3078 
Q 1150 3584 1784 3584 
Q 2172 3584 2448 3432 
Q 2725 3281 2906 2969 
z
M 947 1747 
Q 947 1113 1208 752 
Q 1469 391 1925 391 
Q 2381 391 2643 752 
Q 2906 1113 2906 1747 
Q 2906 2381 2643 2742 
Q 2381 3103 1925 3103 
Q 1469 3103 1208 2742 
Q 947 2381 947 1747 
z
" transform="scale(0.015625)"/>
       <path id="DejaVuSans-20" transform="scale(0.015625)"/>
       <path id="DejaVuSans-73" d="M 2834 3397 
L 2834 2853 
Q 2591 2978 2328 3040 
Q 2066 3103 1784 3103 
Q 1356 3103 1142 2972 
Q 928 2841 928 2578 
Q 928 2378 1081 2264 
Q 1234 2150 1697 2047 
L 1894 2003 
Q 2506 1872 2764 1633 
Q 3022 1394 3022 966 
Q 3022 478 2636 193 
Q 2250 -91 1575 -91 
Q 1294 -91 989 -36 
Q 684 19 347 128 
L 347 722 
Q 666 556 975 473 
Q 1284 391 1588 391 
Q 1994 391 2212 530 
Q 2431 669 2431 922 
Q 2431 1156 2273 1281 
Q 2116 1406 1581 1522 
L 1381 1569 
Q 847 1681 609 1914 
Q 372 2147 372 2553 
Q 372 3047 722 3315 
Q 1072 3584 1716 3584 
Q 2034 3584 2315 3537 
Q 2597 3491 2834 3397 
z
" transform="scale(0.015625)"/>
       <path id="DejaVuSans-6e" d="M 3513 2113 
L 3513 0 
L 2938 0 
L 2938 2094 
Q 2938 2591 2744 2837 
Q 2550 3084 2163 3084 
Q 1697 3084 1428 2787 
Q 1159 2491 1159 1978 
L 1159 0 
L 581 0 
L 581 3500 
L 1159 3500 
L 1159 2956 
Q 1366 3272 1645 3428 
Q 1925 3584 2291 3584 
Q 2894 3584 3203 3211 
Q 3513 2838 3513 2113 
z
" transform="scale(0.015625)"/>
       <path id="DejaVuSans-61" d="M 2194 1759 
Q 1497 1759 1228 1600 
Q 959 1441 959 1056 
Q 959 750 1161 570 
Q 1363 391 1709 391 
Q 2188 391 2477 730 
Q 2766 1069 2766 1631 
L 2766 1759 
L 2194 1759 
z
M 3341 1997 
L 3341 0 
L 2766 0 
L 2766 531 
Q 2569 213 2275 61 
Q 1981 -91 1556 -91 
Q 1019 -91 701 211 
Q 384 513 384 1019 
Q 384 1609 779 1909 
Q 1175 2209 1959 2209 
L 2766 2209 
L 2766 2266 
Q 2766 2663 2505 2880 
Q 2244 3097 1772 3097 
Q 1472 3097 1187 3025 
Q 903 2953 641 2809 
L 641 3341 
Q 956 3463 1253 3523 
Q 1550 3584 1831 3584 
Q 2591 3584 2966 3190 
Q 3341 2797 3341 1997 
z
" transform="scale(0.015625)"/>
       <path id="DejaVuSans-6c" d="M 603 4863 
L 1178 4863 
L 1178 0 
L 603 0 
L 603 4863 
z
" transform="scale(0.015625)"/>
      </defs>
      <use xlink:href="#DejaVuSans-77"/>
      <use xlink:href="#DejaVuSans-65" transform="translate(81.787109 0)"/>
      <use xlink:href="#DejaVuSans-69" transform="translate(143.310547 0)"/>
      <use xlink:href="#DejaVuSans-67" transform="translate(171.09375 0)"/>
      <use xlink:href="#DejaVuSans-68" transform="translate(234.570312 0)"/>
      <use xlink:href="#DejaVuSans-74" transform="translate(297.949219 0)"/>
      <use xlink:href="#DejaVuSans-65" transform="translate(337.158203 0)"/>
      <use xlink:href="#DejaVuSans-64" transform="translate(398.681641 0)"/>
      <use xlink:href="#DejaVuSans-20" transform="translate(462.158203 0)"/>
      <use xlink:href="#DejaVuSans-73" transform="translate(493.945312 0)"/>
      <use xlink:href="#DejaVuSans-69" transform="translate(546.044922 0)"/>
      <use xlink:href="#DejaVuSans-67" transform="translate(573.828125 0)"/>
      <use xlink:href="#DejaVuSans-6e" transform="translate(637.304688 0)"/>
      <use xlink:href="#DejaVuSans-61" transform="translate(700.683594 0)"/>
      <use xlink:href="#DejaVuSans-6c" transform="translate(761.962891 0)"/>
     </g>
    </g>
   </g>
   <g id="line2d_14">
    <path d="M 72.715699 291.06 
L 77.896154 291.06 
L 83.07661 157.746077 
L 88.257066 177.40408 
L 93.437522 174.699497 
L 98.617977 167.661597 
L 103.798433 161.271797 
L 108.978889 155.369801 
L 114.159344 151.857846 
L 119.3398 146.044432 
L 124.520256 142.047165 
L 129.700711 138.304535 
L 134.881167 134.396062 
L 140.061623 131.324983 
L 145.242078 128.68937 
L 150.422534 126.299817 
L 155.60299 123.996452 
L 160.783446 122.038325 
L 165.963901 120.027299 
L 171.144357 118.972907 
L 176.324813 116.597405 
L 181.505268 114.978245 
L 186.685724 112.51653 
L 191.86618 110.038632 
L 197.046635 108.454457 
L 202.227091 105.659708 
L 207.407547 103.403234 
L 212.588003 101.297504 
L 217.768458 101.311592 
L 222.948914 98.151383 
L 228.12937 95.412253 
L 233.309825 93.764156 
L 238.490281 90.795037 
L 243.670737 88.458471 
L 248.851192 86.131729 
L 254.031648 83.914378 
L 259.212104 82.134986 
L 264.392559 79.844973 
L 269.573015 77.086082 
L 274.753471 75.203832 
L 279.933927 72.290518 
L 285.114382 70.769578 
L 290.294838 68.944081 
L 295.475294 66.839087 
L 300.655749 65.29603 
L 305.836205 66.57864 
L 311.016661 62.957569 
L 316.197116 60.69314 
L 321.377572 61.305495 
L 326.558028 59.318918 
L 331.738484 53.12103 
L 336.918939 55.929368 
L 342.099395 55.367132 
L 347.279851 54.055397 
L 352.460306 53.914514 
L 357.640762 51.157268 
L 362.821218 51.586875 
L 368.001673 50.492075 
L 373.182129 49.66645 
L 378.362585 48.607582 
L 383.54304 47.81724 
L 388.723496 46.970993 
L 393.903952 48.039711 
L 399.084408 46.238052 
L 404.264863 45.392254 
L 409.445319 44.482573 
L 414.625775 45.67811 
L 419.80623 43.616353 
L 424.986686 42.883062 
L 430.167142 42.194405 
L 435.347597 42.334939 
L 440.528053 41.822549 
L 445.708509 42.053647 
L 450.888965 42.381718 
L 456.06942 41.74727 
L 461.249876 42.564093 
L 466.430332 41.13656 
L 471.610787 42.783895 
L 476.791243 41.881769 
L 481.971699 42.925128 
L 487.152154 40.408081 
L 492.33261 41.737395 
L 497.513066 41.793898 
L 502.693521 43.015093 
L 507.873977 41.924358 
L 513.054433 41.702536 
L 518.234889 40.982586 
L 523.415344 41.708595 
L 528.5958 41.923561 
L 533.776256 41.926628 
L 538.956711 43.419914 
L 544.137167 43.437219 
L 549.317623 42.536315 
L 554.498078 41.768614 
L 559.678534 42.276417 
L 564.85899 42.355162 
L 570.039446 41.015799 
" clip-path="url(#pe390e92936)" style="fill: none; stroke: #4c78a8; stroke-width: 2; stroke-linecap: square"/>
   </g>
   <g id="line2d_15">
    <path d="M 72.715699 291.06 
L 77.896154 291.06 
L 83.07661 229.500784 
L 88.257066 192.787812 
L 93.437522 182.603854 
L 98.617977 181.675758 
L 103.798433 182.437312 
L 108.978889 183.992625 
L 114.159344 185.13717 
L 119.3398 188.073487 
L 124.520256 189.255111 
L 129.700711 190.261303 
L 134.881167 191.77076 
L 140.061623 192.309639 
L 145.242078 192.862418 
L 150.422534 192.774079 
L 155.60299 193.006618 
L 160.783446 193.042368 
L 165.963901 193.289668 
L 171.144357 192.513751 
L 176.324813 192.826611 
L 181.505268 192.536517 
L 186.685724 193.567395 
L 191.86618 193.663432 
L 197.046635 193.222019 
L 202.227091 193.692794 
L 207.407547 193.638971 
L 212.588003 193.789635 
L 217.768458 192.458557 
L 222.948914 192.358854 
L 228.12937 193.873529 
L 233.309825 193.379316 
L 238.490281 193.879133 
L 243.670737 193.613363 
L 248.851192 193.843383 
L 254.031648 193.707281 
L 259.212104 192.873664 
L 264.392559 193.088754 
L 269.573015 193.594668 
L 274.753471 193.093354 
L 279.933927 194.117182 
L 285.114382 193.176899 
L 290.294838 193.321585 
L 295.475294 193.424523 
L 300.655749 193.323243 
L 305.836205 190.837478 
L 311.016661 193.103939 
L 316.197116 193.366718 
L 321.377572 190.885116 
L 326.558028 192.342229 
L 331.738484 196.371955 
L 336.918939 192.834572 
L 342.099395 192.49768 
L 347.279851 192.705402 
L 352.460306 193.726069 
L 357.640762 193.814103 
L 362.821218 192.413163 
L 368.001673 192.404436 
L 373.182129 192.343126 
L 378.362585 192.52764 
L 383.54304 192.365076 
L 388.723496 192.301447 
L 393.903952 190.66916 
L 399.084408 191.963577 
L 404.264863 191.908539 
L 409.445319 191.920358 
L 414.625775 190.471294 
L 419.80623 191.863189 
L 424.986686 192.154287 
L 430.167142 192.033545 
L 435.347597 192.133603 
L 440.528053 192.228145 
L 445.708509 192.095116 
L 450.888965 191.466309 
L 456.06942 192.014563 
L 461.249876 191.257752 
L 466.430332 192.443135 
L 471.610787 190.687219 
L 476.791243 191.577539 
L 481.971699 190.139234 
L 487.152154 192.035272 
L 492.33261 191.428913 
L 497.513066 191.38034 
L 502.693521 190.079489 
L 507.873977 191.233011 
L 513.054433 191.431419 
L 518.234889 191.917291 
L 523.415344 191.37236 
L 528.5958 191.272969 
L 533.776256 191.345418 
L 538.956711 190.034818 
L 544.137167 190.147898 
L 549.317623 190.991246 
L 554.498078 191.699571 
L 559.678534 191.446486 
L 564.85899 191.434779 
L 570.039446 191.994154 
" clip-path="url(#pe390e92936)" style="fill: none; stroke: #72b7b2; stroke-width: 2; stroke-linecap: square"/>
   </g>
   <g id="line2d_16">
    <path d="M 72.715699 291.06 
L 77.896154 291.06 
L 83.07661 152.741557 
L 88.257066 163.73638 
L 93.437522 160.512312 
L 98.617977 151.922041 
L 103.798433 143.188955 
L 108.978889 134.68001 
L 114.159344 127.018521 
L 119.3398 117.423578 
L 124.520256 108.473495 
L 129.700711 99.396117 
L 134.881167 89.627103 
L 140.061623 80.082181 
L 145.242078 72.816972 
L 150.422534 67.776197 
L 155.60299 63.76554 
L 160.783446 60.6797 
L 165.963901 57.931555 
L 171.144357 56.612215 
L 176.324813 55.149224 
L 181.505268 54.15419 
L 186.685724 52.465013 
L 191.86618 51.577574 
L 197.046635 51.344581 
L 202.227091 50.201881 
L 207.407547 49.39578 
L 212.588003 48.970687 
L 217.768458 50.252275 
L 222.948914 49.827955 
L 228.12937 47.658977 
L 233.309825 47.606563 
L 238.490281 46.766376 
L 243.670737 46.713713 
L 248.851192 46.059891 
L 254.031648 45.830363 
L 259.212104 46.289817 
L 264.392559 45.965337 
L 269.573015 45.033663 
L 274.753471 45.250972 
L 279.933927 43.878096 
L 285.114382 44.731799 
L 290.294838 44.183476 
L 295.475294 43.787607 
L 300.655749 43.692929 
L 305.836205 45.152753 
L 311.016661 43.551646 
L 316.197116 43.270828 
L 321.377572 45.083034 
L 326.558028 43.517984 
L 331.738484 39.46 
L 336.918939 42.71313 
L 342.099395 42.936847 
L 347.279851 42.475897 
L 352.460306 41.497171 
L 357.640762 40.965256 
L 362.821218 42.334092 
L 368.001673 42.14663 
L 373.182129 41.967371 
L 378.362585 41.640996 
L 383.54304 41.666056 
L 388.723496 41.628753 
L 393.903952 42.708641 
L 399.084408 41.949967 
L 404.264863 41.980188 
L 409.445319 41.61459 
L 414.625775 42.544968 
L 419.80623 41.464506 
L 424.986686 41.021958 
L 430.167142 40.860728 
L 435.347597 40.934162 
L 440.528053 40.679325 
L 445.708509 40.991612 
L 450.888965 41.277169 
L 456.06942 41.024028 
L 461.249876 42.195552 
L 466.430332 40.40272 
L 471.610787 42.19261 
L 476.791243 41.517568 
L 481.971699 42.49021 
L 487.152154 40.576094 
L 492.33261 41.595465 
L 497.513066 41.641719 
L 502.693521 42.878998 
L 507.873977 41.866808 
L 513.054433 41.624963 
L 518.234889 41.259539 
L 523.415344 41.62404 
L 528.5958 41.831376 
L 533.776256 41.823745 
L 538.956711 42.690763 
L 544.137167 42.4173 
L 549.317623 42.192485 
L 554.498078 41.303076 
L 559.678534 41.722709 
L 564.85899 41.719966 
L 570.039446 40.69653 
" clip-path="url(#pe390e92936)" style="fill: none; stroke: #e45756; stroke-width: 2; stroke-linecap: square"/>
   </g>
   <g id="line2d_17">
    <path d="M 72.715699 291.06 
L 77.896154 291.06 
L 83.07661 225.428151 
L 88.257066 206.712113 
L 93.437522 202.463058 
L 98.617977 199.535356 
L 103.798433 198.548407 
L 108.978889 198.75942 
L 114.159344 199.256308 
L 119.3398 201.427149 
L 124.520256 203.606768 
L 129.700711 205.69258 
L 134.881167 207.465196 
L 140.061623 208.608893 
L 145.242078 209.244289 
L 150.422534 209.347876 
L 155.60299 209.525469 
L 160.783446 209.555903 
L 165.963901 209.687348 
L 171.144357 209.015934 
L 176.324813 209.4369 
L 181.505268 208.814358 
L 186.685724 209.653025 
L 191.86618 209.769783 
L 197.046635 209.522938 
L 202.227091 209.686961 
L 207.407547 209.812366 
L 212.588003 209.665056 
L 217.768458 208.755674 
L 222.948914 208.887163 
L 228.12937 209.591261 
L 233.309825 209.309295 
L 238.490281 209.5619 
L 243.670737 209.347321 
L 248.851192 209.472401 
L 254.031648 209.358616 
L 259.212104 209.064158 
L 264.392559 208.703391 
L 269.573015 209.190629 
L 274.753471 208.878971 
L 279.933927 209.601166 
L 285.114382 208.990662 
L 290.294838 208.892206 
L 295.475294 208.915346 
L 300.655749 208.868006 
L 305.836205 207.966092 
L 311.016661 208.598433 
L 316.197116 208.724717 
L 321.377572 207.974533 
L 326.558028 207.924376 
L 331.738484 210.454014 
L 336.918939 208.28374 
L 342.099395 207.994362 
L 347.279851 208.033155 
L 352.460306 208.321367 
L 357.640762 208.946988 
L 362.821218 207.802156 
L 368.001673 207.849745 
L 373.182129 207.727301 
L 378.362585 207.839222 
L 383.54304 207.73275 
L 388.723496 207.663318 
L 393.903952 206.488838 
L 399.084408 207.370904 
L 404.264863 207.473574 
L 409.445319 207.336457 
L 414.625775 206.78382 
L 419.80623 207.258111 
L 424.986686 207.5023 
L 430.167142 207.376851 
L 435.347597 207.466393 
L 440.528053 207.520446 
L 445.708509 207.411436 
L 450.888965 207.899653 
L 456.06942 207.330746 
L 461.249876 206.313084 
L 466.430332 207.376253 
L 471.610787 206.377672 
L 476.791243 206.930158 
L 481.971699 206.079429 
L 487.152154 207.480693 
L 492.33261 206.827818 
L 497.513066 206.79266 
L 502.693521 206.212932 
L 507.873977 206.669718 
L 513.054433 206.851918 
L 518.234889 207.0918 
L 523.415344 206.830842 
L 528.5958 206.739367 
L 533.776256 206.798732 
L 538.956711 206.007161 
L 544.137167 205.682532 
L 549.317623 206.43433 
L 554.498078 207.050937 
L 559.678534 206.746443 
L 564.85899 206.732629 
L 570.039446 207.352465 
" clip-path="url(#pe390e92936)" style="fill: none; stroke: #f58518; stroke-width: 2; stroke-linecap: square"/>
   </g>
   <g id="patch_6">
    <path d="M 47.72 303.64 
L 47.72 26.88 
" style="fill: none; stroke: #000000; stroke-width: 0.8; stroke-linejoin: miter; stroke-linecap: square"/>
   </g>
   <g id="patch_7">
    <path d="M 597.625372 303.64 
L 597.625372 26.88 
" style="fill: none; stroke: #000000; stroke-width: 0.8; stroke-linejoin: miter; stroke-linecap: square"/>
   </g>
   <g id="patch_8">
    <path d="M 47.72 303.64 
L 597.625372 303.64 
" style="fill: none; stroke: #000000; stroke-width: 0.8; stroke-linejoin: miter; stroke-linecap: square"/>
   </g>
   <g id="patch_9">
    <path d="M 47.72 26.88 
L 597.625372 26.88 
" style="fill: none; stroke: #000000; stroke-width: 0.8; stroke-linejoin: miter; stroke-linecap: square"/>
   </g>
   <g id="text_16">
    <!-- Trajectory Signal Evolution -->
    <g transform="translate(242.829561 20.88) scale(0.12 -0.12)">
     <defs>
      <path id="DejaVuSans-54" d="M -19 4666 
L 3928 4666 
L 3928 4134 
L 2272 4134 
L 2272 0 
L 1638 0 
L 1638 4134 
L -19 4134 
L -19 4666 
z
" transform="scale(0.015625)"/>
      <path id="DejaVuSans-72" d="M 2631 2963 
Q 2534 3019 2420 3045 
Q 2306 3072 2169 3072 
Q 1681 3072 1420 2755 
Q 1159 2438 1159 1844 
L 1159 0 
L 581 0 
L 581 3500 
L 1159 3500 
L 1159 2956 
Q 1341 3275 1631 3429 
Q 1922 3584 2338 3584 
Q 2397 3584 2469 3576 
Q 2541 3569 2628 3553 
L 2631 2963 
z
" transform="scale(0.015625)"/>
      <path id="DejaVuSans-6a" d="M 603 3500 
L 1178 3500 
L 1178 -63 
Q 1178 -731 923 -1031 
Q 669 -1331 103 -1331 
L -116 -1331 
L -116 -844 
L 38 -844 
Q 366 -844 484 -692 
Q 603 -541 603 -63 
L 603 3500 
z
M 603 4863 
L 1178 4863 
L 1178 4134 
L 603 4134 
L 603 4863 
z
" transform="scale(0.015625)"/>
      <path id="DejaVuSans-6f" d="M 1959 3097 
Q 1497 3097 1228 2736 
Q 959 2375 959 1747 
Q 959 1119 1226 758 
Q 1494 397 1959 397 
Q 2419 397 2687 759 
Q 2956 1122 2956 1747 
Q 2956 2369 2687 2733 
Q 2419 3097 1959 3097 
z
M 1959 3584 
Q 2709 3584 3137 3096 
Q 3566 2609 3566 1747 
Q 3566 888 3137 398 
Q 2709 -91 1959 -91 
Q 1206 -91 779 398 
Q 353 888 353 1747 
Q 353 2609 779 3096 
Q 1206 3584 1959 3584 
z
" transform="scale(0.015625)"/>
      <path id="DejaVuSans-79" d="M 2059 -325 
Q 1816 -950 1584 -1140 
Q 1353 -1331 966 -1331 
L 506 -1331 
L 506 -850 
L 844 -850 
Q 1081 -850 1212 -737 
Q 1344 -625 1503 -206 
L 1606 56 
L 191 3500 
L 800 3500 
L 1894 763 
L 2988 3500 
L 3597 3500 
L 2059 -325 
z
" transform="scale(0.015625)"/>
      <path id="DejaVuSans-53" d="M 3425 4513 
L 3425 3897 
Q 3066 4069 2747 4153 
Q 2428 4238 2131 4238 
Q 1616 4238 1336 4038 
Q 1056 3838 1056 3469 
Q 1056 3159 1242 3001 
Q 1428 2844 1947 2747 
L 2328 2669 
Q 3034 2534 3370 2195 
Q 3706 1856 3706 1288 
Q 3706 609 3251 259 
Q 2797 -91 1919 -91 
Q 1588 -91 1214 -16 
Q 841 59 441 206 
L 441 856 
Q 825 641 1194 531 
Q 1563 422 1919 422 
Q 2459 422 2753 634 
Q 3047 847 3047 1241 
Q 3047 1584 2836 1778 
Q 2625 1972 2144 2069 
L 1759 2144 
Q 1053 2284 737 2584 
Q 422 2884 422 3419 
Q 422 4038 858 4394 
Q 1294 4750 2059 4750 
Q 2388 4750 2728 4690 
Q 3069 4631 3425 4513 
z
" transform="scale(0.015625)"/>
      <path id="DejaVuSans-45" d="M 628 4666 
L 3578 4666 
L 3578 4134 
L 1259 4134 
L 1259 2753 
L 3481 2753 
L 3481 2222 
L 1259 2222 
L 1259 531 
L 3634 531 
L 3634 0 
L 628 0 
L 628 4666 
z
" transform="scale(0.015625)"/>
      <path id="DejaVuSans-76" d="M 191 3500 
L 800 3500 
L 1894 563 
L 2988 3500 
L 3597 3500 
L 2284 0 
L 1503 0 
L 191 3500 
z
" transform="scale(0.015625)"/>
      <path id="DejaVuSans-75" d="M 544 1381 
L 544 3500 
L 1119 3500 
L 1119 1403 
Q 1119 906 1312 657 
Q 1506 409 1894 409 
Q 2359 409 2629 706 
Q 2900 1003 2900 1516 
L 2900 3500 
L 3475 3500 
L 3475 0 
L 2900 0 
L 2900 538 
Q 2691 219 2414 64 
Q 2138 -91 1772 -91 
Q 1169 -91 856 284 
Q 544 659 544 1381 
z
M 1991 3584 
L 1991 3584 
z
" transform="scale(0.015625)"/>
     </defs>
     <use xlink:href="#DejaVuSans-54"/>
     <use xlink:href="#DejaVuSans-72" transform="translate(46.333984 0)"/>
     <use xlink:href="#DejaVuSans-61" transform="translate(87.447266 0)"/>
     <use xlink:href="#DejaVuSans-6a" transform="translate(148.726562 0)"/>
     <use xlink:href="#DejaVuSans-65" transform="translate(176.509766 0)"/>
     <use xlink:href="#DejaVuSans-63" transform="translate(238.033203 0)"/>
     <use xlink:href="#DejaVuSans-74" transform="translate(293.013672 0)"/>
     <use xlink:href="#DejaVuSans-6f" transform="translate(332.222656 0)"/>
     <use xlink:href="#DejaVuSans-72" transform="translate(393.404297 0)"/>
     <use xlink:href="#DejaVuSans-79" transform="translate(434.517578 0)"/>
     <use xlink:href="#DejaVuSans-20" transform="translate(493.697266 0)"/>
     <use xlink:href="#DejaVuSans-53" transform="translate(525.484375 0)"/>
     <use xlink:href="#DejaVuSans-69" transform="translate(588.960938 0)"/>
     <use xlink:href="#DejaVuSans-67" transform="translate(616.744141 0)"/>
     <use xlink:href="#DejaVuSans-6e" transform="translate(680.220703 0)"/>
     <use xlink:href="#DejaVuSans-61" transform="translate(743.599609 0)"/>
     <use xlink:href="#DejaVuSans-6c" transform="translate(804.878906 0)"/>
     <use xlink:href="#DejaVuSans-20" transform="translate(832.662109 0)"/>
     <use xlink:href="#DejaVuSans-45" transform="translate(864.449219 0)"/>
     <use xlink:href="#DejaVuSans-76" transform="translate(927.632812 0)"/>
     <use xlink:href="#DejaVuSans-6f" transform="translate(986.8125 0)"/>
     <use xlink:href="#DejaVuSans-6c" transform="translate(1047.994141 0)"/>
     <use xlink:href="#DejaVuSans-75" transform="translate(1075.777344 0)"/>
     <use xlink:href="#DejaVuSans-74" transform="translate(1139.15625 0)"/>
     <use xlink:href="#DejaVuSans-69" transform="translate(1178.365234 0)"/>
     <use xlink:href="#DejaVuSans-6f" transform="translate(1206.148438 0)"/>
     <use xlink:href="#DejaVuSans-6e" transform="translate(1267.330078 0)"/>
    </g>
   </g>
   <g id="legend_1">
    <g id="line2d_18">
     <path d="M 525.439435 245.025937 
L 535.439435 245.025937 
L 545.439435 245.025937 
" style="fill: none; stroke: #4c78a8; stroke-width: 2; stroke-linecap: square"/>
    </g>
    <g id="text_17">
     <!-- drive -->
     <g transform="translate(553.439435 248.525937) scale(0.1 -0.1)">
      <use xlink:href="#DejaVuSans-64"/>
      <use xlink:href="#DejaVuSans-72" transform="translate(63.476562 0)"/>
      <use xlink:href="#DejaVuSans-69" transform="translate(104.589844 0)"/>
      <use xlink:href="#DejaVuSans-76" transform="translate(132.373047 0)"/>
      <use xlink:href="#DejaVuSans-65" transform="translate(191.552734 0)"/>
     </g>
    </g>
    <g id="line2d_19">
     <path d="M 525.439435 259.704062 
L 535.439435 259.704062 
L 545.439435 259.704062 
" style="fill: none; stroke: #72b7b2; stroke-width: 2; stroke-linecap: square"/>
    </g>
    <g id="text_18">
     <!-- brake -->
     <g transform="translate(553.439435 263.204062) scale(0.1 -0.1)">
      <defs>
       <path id="DejaVuSans-62" d="M 3116 1747 
Q 3116 2381 2855 2742 
Q 2594 3103 2138 3103 
Q 1681 3103 1420 2742 
Q 1159 2381 1159 1747 
Q 1159 1113 1420 752 
Q 1681 391 2138 391 
Q 2594 391 2855 752 
Q 3116 1113 3116 1747 
z
M 1159 2969 
Q 1341 3281 1617 3432 
Q 1894 3584 2278 3584 
Q 2916 3584 3314 3078 
Q 3713 2572 3713 1747 
Q 3713 922 3314 415 
Q 2916 -91 2278 -91 
Q 1894 -91 1617 61 
Q 1341 213 1159 525 
L 1159 0 
L 581 0 
L 581 4863 
L 1159 4863 
L 1159 2969 
z
" transform="scale(0.015625)"/>
      </defs>
      <use xlink:href="#DejaVuSans-62"/>
      <use xlink:href="#DejaVuSans-72" transform="translate(63.476562 0)"/>
      <use xlink:href="#DejaVuSans-61" transform="translate(104.589844 0)"/>
      <use xlink:href="#DejaVuSans-6b" transform="translate(165.869141 0)"/>
      <use xlink:href="#DejaVuSans-65" transform="translate(220.154297 0)"/>
     </g>
    </g>
    <g id="line2d_20">
     <path d="M 525.439435 274.382187 
L 535.439435 274.382187 
L 545.439435 274.382187 
" style="fill: none; stroke: #e45756; stroke-width: 2; stroke-linecap: square"/>
    </g>
    <g id="text_19">
     <!-- alarm -->
     <g transform="translate(553.439435 277.882187) scale(0.1 -0.1)">
      <defs>
       <path id="DejaVuSans-6d" d="M 3328 2828 
Q 3544 3216 3844 3400 
Q 4144 3584 4550 3584 
Q 5097 3584 5394 3201 
Q 5691 2819 5691 2113 
L 5691 0 
L 5113 0 
L 5113 2094 
Q 5113 2597 4934 2840 
Q 4756 3084 4391 3084 
Q 3944 3084 3684 2787 
Q 3425 2491 3425 1978 
L 3425 0 
L 2847 0 
L 2847 2094 
Q 2847 2600 2669 2842 
Q 2491 3084 2119 3084 
Q 1678 3084 1418 2786 
Q 1159 2488 1159 1978 
L 1159 0 
L 581 0 
L 581 3500 
L 1159 3500 
L 1159 2956 
Q 1356 3278 1631 3431 
Q 1906 3584 2284 3584 
Q 2666 3584 2933 3390 
Q 3200 3197 3328 2828 
z
" transform="scale(0.015625)"/>
      </defs>
      <use xlink:href="#DejaVuSans-61"/>
      <use xlink:href="#DejaVuSans-6c" transform="translate(61.279297 0)"/>
      <use xlink:href="#DejaVuSans-61" transform="translate(89.0625 0)"/>
      <use xlink:href="#DejaVuSans-72" transform="translate(150.341797 0)"/>
      <use xlink:href="#DejaVuSans-6d" transform="translate(189.705078 0)"/>
     </g>
    </g>
    <g id="line2d_21">
     <path d="M 525.439435 289.060312 
L 535.439435 289.060312 
L 545.439435 289.060312 
" style="fill: none; stroke: #f58518; stroke-width: 2; stroke-linecap: square"/>
    </g>
    <g id="text_20">
     <!-- fatigue -->
     <g transform="translate(553.439435 292.560312) scale(0.1 -0.1)">
      <defs>
       <path id="DejaVuSans-66" d="M 2375 4863 
L 2375 4384 
L 1825 4384 
Q 1516 4384 1395 4259 
Q 1275 4134 1275 3809 
L 1275 3500 
L 2222 3500 
L 2222 3053 
L 1275 3053 
L 1275 0 
L 697 0 
L 697 3053 
L 147 3053 
L 147 3500 
L 697 3500 
L 697 3744 
Q 697 4328 969 4595 
Q 1241 4863 1831 4863 
L 2375 4863 
z
" transform="scale(0.015625)"/>
      </defs>
      <use xlink:href="#DejaVuSans-66"/>
      <use xlink:href="#DejaVuSans-61" transform="translate(35.205078 0)"/>
      <use xlink:href="#DejaVuSans-74" transform="translate(96.484375 0)"/>
      <use xlink:href="#DejaVuSans-69" transform="translate(135.693359 0)"/>
      <use xlink:href="#DejaVuSans-67" transform="translate(163.476562 0)"/>
      <use xlink:href="#DejaVuSans-75" transform="translate(226.953125 0)"/>
      <use xlink:href="#DejaVuSans-65" transform="translate(290.332031 0)"/>
     </g>
    </g>
   </g>
  </g>
 </g>
 <defs>
  <clipPath id="pe390e92936">
   <rect x="47.72" y="26.88" width="549.905372" height="276.76"/>
  </clipPath>
 </defs>
</svg>
